<?xml version="1.0" encoding="utf8" standalone="no"?>
<svg viewBox="0 0 379.18417 376.76294" xmlns="http://www.w3.org/2000/svg">
<g transform="translate(-210.37389,-192.26886)">
<path d="m469.552,603.4823c0,8.15492-61.15053,14.76579-136.58352,14.76579s-136.58353-6.61087-136.58353-14.76579 61.15053-14.76579 136.58353-14.76579 136.58352,6.61087 136.58352,14.76579z" transform="translate(84.55788,-84.64934)"/>
<path d="m-156.51733,622.6778c0,43.22106-3.96652,78.25866-8.85947,78.25866s-8.85947-35.0376-8.85947-78.25866 3.96652-78.25867 8.85947-78.25867 8.85947,35.0376 8.85947,78.25867z" fill="#fff" stroke="#000" stroke-linecap="round" stroke-linejoin="round" stroke-width="3.6" transform="matrix(.95123,.30847,-.30847,.95123,712.16987,-95.80583)"/>
<path d="m-156.51733,622.6778c0,43.22106-3.96652,78.25866-8.85947,78.25866s-8.85947-35.0376-8.85947-78.25866 3.96652-78.25867 8.85947-78.25867 8.85947,35.0376 8.85947,78.25867z" fill="#fff" stroke="#000" stroke-linecap="round" stroke-linejoin="round" stroke-width="3.6" transform="matrix(.95123,.30847,-.30847,.95123,737.45216,-95.80583)"/>
<path d="m-156.51733,622.6778c0,43.22106-3.96652,78.25866-8.85947,78.25866s-8.85947-35.0376-8.85947-78.25866 3.96652-78.25867 8.85947-78.25867 8.85947,35.0376 8.85947,78.25867z" fill="#fff" stroke="#000" stroke-linecap="round" stroke-linejoin="round" stroke-width="3.6" transform="matrix(.98814,-.15355,.15355,.98814,531.96803,-198.04373)"/>
<path d="m-156.51733,622.6778c0,43.22106-3.96652,78.25866-8.85947,78.25866s-8.85947-35.0376-8.85947-78.25866 3.96652-78.25867 8.85947-78.25867 8.85947,35.0376 8.85947,78.25867z" fill="#fff" stroke="#000" stroke-linecap="round" stroke-linejoin="round" stroke-width="3.6" transform="matrix(.98814,-.15355,.15355,.98814,556.77218,-198.04373)"/>
<path d="m444.12235,255.31857c-8.83623,0-16.55595,4.79367-20.71875,11.90625-4.35802-6.0257-11.43264-9.9375-19.4375-9.9375-9.93707,0-18.45184,6.0458-22.09375,14.65625-4.29621-6.47445-11.67887-10.75-20.03125-10.75-12.72624,0-23.10383,9.91388-23.90625,22.4375-3.37591-1.81349-7.24327-2.84375-11.34375-2.84375-13.24943,0-23.96875,10.75057-23.96875,24 0,1.86198.19235,3.66621.59375,5.40625-12.84828.4559-23.125,11.00923-23.125,23.96875 0,7.8822 3.78683,14.87676 9.65625,19.25-12.03516,1.28789-21.40625,11.43541-21.40625,23.8125 0,11.42595 7.99149,20.99117 18.6875,23.40625-3.69296,4.21955-5.96875,9.73334-5.96875,15.78125 0,13.24943 10.75057,23.96875 24,23.96875 5.38258,0 10.34116-1.75664 14.34375-4.75-.71978,2.28089-1.125,4.69998-1.125,7.21875 0,13.24943 10.75057,23.96875 24,23.96875 6.18213,0 11.80857-2.3545 16.0625-6.1875 1.32961.5514 2.67214,1.08523 4.03125,1.59375 .41899,12.88253 10.98483,23.21875 23.96875,23.21875 9.99622,0 18.55127-6.12016 22.15625-14.8125 3.06645,9.71722 12.14435,16.75 22.875,16.75 11.72359,0 21.47013-8.38428 23.5625-19.5 3.40607,9.10341 12.1768,15.59375 22.46873,15.59375 13.2495,0 24-10.75057 24-24 0-2.48427-.3928-4.87139-1.0937-7.125 3.9904,2.96162 8.9614,4.6875 14.3125,4.6875 13.2494,0 23.9688-10.75057 23.9688-24 0-6.03531-2.2271-11.53382-5.9063-15.75 10.6809-2.42618 18.6563-11.99099 18.6563-23.40625 0-9.27364-5.2678-17.31957-12.9688-21.3125 8.2232-3.80459 13.9375-12.1251 13.9375-21.78125 0-12.61212-9.7294-22.90956-22.0937-23.875 .9856-2.624 1.5312-5.46909 1.5312-8.4375 0-13.24943-10.7506-23.96875-24-23.96875-1.862,0-3.6661.19235-5.4062.59375-.4559-12.84828-11.0093-23.125-23.9688-23.125-3.86623,0-7.51563.93799-10.75003,2.5625-2.2138-10.96192-11.88549-19.21875-23.5-19.21875z" fill="#fff" stroke="#000" stroke-linecap="round" stroke-linejoin="round" stroke-width="3.6"/>
<g transform="translate(100.77785,-96.46197)">
<path d="m358.11328,450.31244c5.31048,24.786-5.51948,40.50538-24.18939,35.11022s-11.25694-31.3959-16.56742-56.1819-21.33344-38.9713-2.66352-33.57613 38.10986,29.86182 43.42033,54.64781z" fill="#fff" stroke="#000" stroke-linecap="round" stroke-linejoin="round" stroke-width="4.25504"/>
<path d="m149.16702,449.14887c-6.54291,24.48953 3.48769,40.73066 22.40397,36.27556s12.81236-30.7939 19.35526-55.28344 23.25496-37.85611 4.33868-33.401-39.55501,27.91935-46.09791,52.40888z" fill="#fff" stroke="#000" stroke-linecap="round" stroke-linejoin="round" stroke-width="4.25504"/>
<path d="m312.69431,446.95473c0,47.58977-26.30396,68.16891-58.75153,68.16891s-58.75153-20.57914-58.75153-68.16891 26.30395-104.16891 58.75153-104.16891 58.75153,56.57914 58.75153,104.16891z" fill="#fff" stroke="#000" stroke-linecap="round" stroke-linejoin="round" stroke-width="3.6"/>
<path d="m94.98164,714.05127c0,15.4126-15.12478,27.90698-33.78213,27.90698s-33.78213-12.49438-33.78213-27.90698 15.12478-27.90698 33.78213-27.90698 33.78213,12.49438 33.78213,27.90698z" fill="#fff" stroke="#000" stroke-linecap="round" stroke-linejoin="round" stroke-width="3.6" transform="translate(154.06516,-319.85786)"/>
<path d="m180.17136,708.66571c0,20.00934-16.22077,36.23011-36.23011,36.23011s-36.23011-16.22077-36.23011-36.23011 16.22078-36.23011 36.23011-36.23011 36.23011,16.22077 36.23011,36.23011z" fill="#fff" stroke="#000" stroke-linecap="round" stroke-linejoin="round" stroke-width="3.6" transform="translate(142.31486,-313.00351)"/>
<path d="m226.93557,482.4146c7.07005,7.12321 15.81836,10.40625 25.40625,10.40625 7.02172,0 13.59283-1.76387 19.375-5.5l1.53125,2.625c-6.2766,4.02039-13.40164,6-20.90625,6-1.11148,0-2.21816-.039-3.3125-.125-.7534,7.10379-.27662,13.20607 3.625,17.34375l-2.625,2.46875c-5.00415-5.30693-5.38193-12.67342-4.5625-20.25-7.6211-1.28836-14.67253-4.78765-20.5625-10.625 .67575-.78775 1.35793-1.56292 2.03125-2.34375z"/>
<path d="m235.51429,400.45272c0,4.48521-3.63598,8.12118-8.12118,8.12118s-8.12118-3.63597-8.12118-8.12118 3.63597-8.12118 8.12118-8.12118 8.12118,3.63598 8.12118,8.12118z" stroke="#000" stroke-linecap="round" stroke-linejoin="round" stroke-width="3.6"/>
<path d="m276.85849,399.71443c0,4.48521-3.63597,8.12118-8.12118,8.12118s-8.12118-3.63597-8.12118-8.12118 3.63597-8.12118 8.12118-8.12118 8.12118,3.63598 8.12118,8.12118z" stroke="#000" stroke-linecap="round" stroke-linejoin="round" stroke-width="3.6"/>
</g>
<path d="m401.75939,395.64535c4.29451-11.32589.26152-21.18343-7.43444-30.15912 6.33808,1.55299 16.17763,3.66809 14.56264,12.82898-1.13103,6.66102-3.92852,12.8932-7.1282,17.33014z" fill="#fff" stroke="#000" stroke-width="3.6"/>
<path d="m395.18008,358.25793c-10.16525-1.66565-12.95921,9.20952-10.00374,15.89198-10.01279-10.34569-2.89294-22.27004 10.00374-15.89198z"/>
</g>
</svg>
