<?xml version="1.0" encoding="utf8" standalone="no"?>
<svg viewBox="0 0 293.33234 393.30801" xmlns="http://www.w3.org/2000/svg">
<g transform="translate(-179.07881,-298.51419)">
<path d="m403.52333,522.30505a67.98833,67.98833 0 1,1 -135.97665,0 67.98833,67.98833 0 1,1 135.97665,0z" fill="#ff8080" stroke="#000" stroke-linecap="round" stroke-linejoin="round" stroke-width="2.20408" transform="matrix(1.81481,0,0,1.81481,-283.47124,-459.57607)"/>
<path d="m403.52333,522.30505a67.98833,67.98833 0 1,1 -135.97665,0 67.98833,67.98833 0 1,1 135.97665,0z" fill-opacity=".3137" transform="matrix(1.40298,0,0,1.40298,-140.28605,-263.97236)"/>
<path d="m434.03125,429.6875c3.20192,10.97469 4.90625,22.58942 4.90625,34.59375 1e-005,68.10918-55.26581,123.375-123.375,123.375-46.82508,0-87.59785-26.13219-108.5-64.59375 15.02313,51.20031 62.36706,88.62501 118.40625,88.625 68.10919,0 123.375-55.26582 123.375-123.375 0-21.20992-5.37317-41.18573-14.8125-58.625z" fill-opacity=".3137"/>
<path d="m409.50378,608.23916c0,21.54474-17.48559,20.77422-39.03034,20.77422s-39.03033.77052-39.03033-20.77422 17.48559-39.03034 39.03033-39.03034 39.03034,17.48559 39.03034,39.03034z" fill="#faa" stroke="#000" stroke-linecap="round" stroke-linejoin="round" stroke-width="4"/>
<path d="m319.4822,608.23915c0,21.54475-17.48559,20.77422-39.03034,20.77422-11.9799,0-22.70476.23824-29.86625-3.25428-5.71779-2.78845-9.16409-7.95509-9.16409-17.51994 0-21.54474 17.48559-39.03033 39.03034-39.03033s39.03034,17.48559 39.03034,39.03033z" fill="#faa" stroke="#000" stroke-linecap="round" stroke-linejoin="round" stroke-width="4"/>
<g transform="matrix(-1,0,0,1,652.15145,-2.82843)">
<path d="m357.34172,628.69417c-3.5026-11.33139.50038-24.55134.50038-24.55134" fill="none" stroke="#000" stroke-linecap="round" stroke-width="4"/>
<path d="m375.36715,631.21226c4.29303-18.25613-.61329-32.73512-.61329-32.73512" fill="none" stroke="#000" stroke-linecap="round" stroke-width="4"/>
<path d="m393.62142,629.3237c8.81331-13.84948 1.25905-25.18087 1.25905-25.18087" fill="none" stroke="#000" stroke-linecap="round" stroke-width="4"/>
</g>
<path d="m393.67527,385.56423c23.54673-10.68136 20.57441-22.93708 30.29074-24.15811 0,0 19.74904,33.40051 6.92644,54.00822-7.55056,12.1348-14.07121,9.99464-14.07121,9.99464" fill="#ff8080" stroke="#000" stroke-linecap="round" stroke-linejoin="round" stroke-width="3.876"/>
<path d="m255.41432,387.98867c-23.54673-10.68136-20.57441-22.93708-30.29074-24.15811 0,0-19.74904,33.40051-6.92644,54.00822 7.55056,12.1348 14.07121,9.99464 14.07121,9.99464" fill="#ff8080" stroke="#000" stroke-linecap="round" stroke-linejoin="round" stroke-width="3.876"/>
<path d="m403.52333,522.30505a67.98833,67.98833 0 1,1 -135.97665,0 67.98833,67.98833 0 1,1 135.97665,0z" fill="#faa" stroke="#000" stroke-linecap="round" stroke-linejoin="round" stroke-width="2.85108" transform="matrix(1.40298,0,0,1.40298,-145.28605,-277.47236)"/>
<path d="m233.4375,117.75c1.52567,6.7692 2.34375,13.80329 2.34375,21.03125 0,52.6532-42.75306,95.40625-95.40625,95.40625-38.77621,0-72.15261-23.19069-87.0625-56.4375 9.55506,42.58704 47.60536,74.4375 93.0625,74.4375 52.65319,0 95.40625-42.75305 95.40625-95.40625 0-13.91184-2.98257-27.10971-8.34375-39.03125z" fill-opacity=".3137" transform="translate(179.07881,298.51419)"/>
<path d="m403.52333,522.30505a67.98833,67.98833 0 1,1 -135.97665,0 67.98833,67.98833 0 1,1 135.97665,0z" fill="#fff" stroke="#000" stroke-linecap="round" stroke-linejoin="round" stroke-width="9.93104" transform="matrix(.40278,0,0,.40278,158.80808,226.92723)"/>
<path d="m403.52333,522.30505a67.98833,67.98833 0 1,1 -135.97665,0 67.98833,67.98833 0 1,1 135.97665,0z" fill="#fff" stroke="#000" stroke-linecap="round" stroke-linejoin="round" stroke-width="9.93104" transform="matrix(.40278,0,0,.40278,222.38976,226.92723)"/>
<path d="m403.52333,522.30505a67.98833,67.98833 0 1,1 -135.97665,0 67.98833,67.98833 0 1,1 135.97665,0z" transform="matrix(.125,0,0,.125,260.19603,375.15958)"/>
<path d="m403.52333,522.30505a67.98833,67.98833 0 1,1 -135.97665,0 67.98833,67.98833 0 1,1 135.97665,0z" transform="matrix(.125,0,0,.125,306.78063,375.15958)"/>
<path d="m390.96875,575.03125c4.72285,6.47998 7.53125,14.46734 7.53125,23.09375 1e-005,12.4664-5.83515,23.55857-14.90625,30.75 15.08125-.57257 25.90625-3.69375 25.90625-20.625 0-14.03175-7.40662-26.33968-18.53125-33.21875z" fill-opacity=".3137"/>
<g transform="translate(-.14728,-2.82843)">
<path d="m357.34172,628.69417c-3.5026-11.33139.50038-24.55134.50038-24.55134" fill="none" stroke="#000" stroke-linecap="round" stroke-width="4"/>
<path d="m375.36715,631.21226c4.29303-18.25613-.61329-32.73512-.61329-32.73512" fill="none" stroke="#000" stroke-linecap="round" stroke-width="4"/>
<path d="m393.62142,629.3237c8.81331-13.84948 1.25905-25.18087 1.25905-25.18087" fill="none" stroke="#000" stroke-linecap="round" stroke-width="4"/>
</g>
<path d="m300.46875,575.03125c4.72285,6.47998 7.53125,14.46734 7.53125,23.09375 1e-005,12.4664-5.83515,23.55857-14.90625,30.75 15.08125-.57257 25.90625-3.69375 25.90625-20.625 0-14.03175-7.40662-26.33968-18.53125-33.21875z" fill-opacity=".3137"/>
<path d="m336.65625,588.75c-3.31254,5.73475-5.21875,12.4056-5.21875,19.5 0,17.5051 11.55269,20.26284 27.4375,20.6875-15.77979-6.57803-23.80465-22.20756-22.21875-40.1875z" fill-opacity=".3137"/>
<path d="m353.79743,498.28969a27.38419,27.38419 0 0,1 -54.76838,0 27.38419,27.38419 0 1,1 54.76838,0z" fill="#ff8080" stroke="#000" stroke-linecap="round" stroke-linejoin="round" stroke-width="4"/>
<path d="m322.92301,497.1682a8.49854,8.49854 0 1,1 -16.99708,0 8.49854,8.49854 0 1,1 16.99708,0z"/>
<path d="m346.40336,496.5439a8.49854,8.49854 0 1,1 -16.99708,0 8.49854,8.49854 0 1,1 16.99708,0z"/>
</g>
</svg>
