<?xml version="1.0" encoding="UTF-8" standalone="no"?>
<svg
   xmlns:dc="http://purl.org/dc/elements/1.1/"
   xmlns:cc="http://creativecommons.org/ns#"
   xmlns:rdf="http://www.w3.org/1999/02/22-rdf-syntax-ns#"
   xmlns:svg="http://www.w3.org/2000/svg"
   xmlns="http://www.w3.org/2000/svg"
   xmlns:sodipodi="http://sodipodi.sourceforge.net/DTD/sodipodi-0.dtd"
   xmlns:inkscape="http://www.inkscape.org/namespaces/inkscape"
   id="svg2"
   height="499.87"
   width="455.53"
   version="1.1"
   inkscape:version="0.91+devel+osxmenu r12859"
   sodipodi:docname="AnimalOwlGrey.svg">
  <metadata
     id="metadata5545">
    <rdf:RDF>
      <cc:Work
         rdf:about="">
        <dc:format>image/svg+xml</dc:format>
        <dc:type
           rdf:resource="http://purl.org/dc/dcmitype/StillImage" />
        <dc:title></dc:title>
      </cc:Work>
    </rdf:RDF>
  </metadata>
  <defs
     id="defs5543" />
  <sodipodi:namedview
     pagecolor="#ffffff"
     bordercolor="#666666"
     borderopacity="1"
     objecttolerance="10"
     gridtolerance="10"
     guidetolerance="10"
     inkscape:pageopacity="0"
     inkscape:pageshadow="2"
     inkscape:window-width="652"
     inkscape:window-height="480"
     id="namedview5541"
     showgrid="false"
     inkscape:zoom="0.47212276"
     inkscape:cx="227.765"
     inkscape:cy="249.935"
     inkscape:window-x="0"
     inkscape:window-y="23"
     inkscape:window-maximized="0"
     inkscape:current-layer="g4379" />
  <g
     id="layer1"
     transform="translate(-144.25 -292.61)">
    <g
       id="g4379">
      <path
         id="rect2985"
         d="m214.99 292.61s6.5884 64.163 38.525 54.327c31.937-9.8366 73.212-13.673 118.62-13.673 45.405 0 86.68 3.8366 118.62 13.673 31.937 9.8366 38.525-54.327 38.525-54.327 124.46 464.49-40 467.14-40 467.14-17.423-4.6684-10.212-2.3598-32.862-4.9315-25.013-2.569 12.233-18.123-82.25-18.123s-56.463 14.91-79.929 17.268c-24.068 2.4767-18.985 0.35812-39.245 5.7867 0 0-164.85-1.2093-40-467.14z"
         fill="#37abc8"
         style="fill:#7f7f7f;fill-opacity:1" />
      <path
         id="path2996"
         d="m321 374.88c-20.94-1.0369-40.751 13.496-47.119 33.276-11.755 34.662 5.6382 74.777 35.546 94.353 18.136 12.307 44.165 15.804 62.635 2.2771 18.447 13.546 44.481 10.014 62.604-2.2771 29.908-19.577 47.302-59.691 35.546-94.353-6.3347-19.728-26.071-34.215-46.927-33.261-19.928 0.44107-38.398 11.414-51.224 26.204-12.816-14.751-31.166-25.727-51.062-26.219z"
         fill="#fff" />
      <path
         id="path3017"
         d="m507.89 599.42c0 46.612-60.818 112.56-135.84 112.56-75.023 0-135.84-65.945-135.84-112.56 0-46.612 60.818-56.239 135.84-56.239 75.023 0 135.84 9.6272 135.84 56.239z"
         fill="#afdde9"
         style="fill:#bfbfbf;fill-opacity:1" />
      <path
         id="path3014"
         d="m370.34 564.01s-54.406-42.908-41.594-57.933 3.0835-22.538 43.358-22.538 30.546 7.5127 43.358 22.538-45.122 57.933-45.122 57.933z"
         fill="#fc0" />
      <path
         id="path3025"
         d="m272.77 732.83c-0.52862 0.14579-1.0806 0.33034-1.6661 0.54344-4.541 1.6531-6.423 3.7186-6.7196 6.5563-2.5191-2.5271-5.6174-2.9828-10.827-0.56075-9.7931 4.5534-7.141 9.8834-2.2099 20.489 4.931 10.605 26.405 32.621 26.405 32.621s-1.1168-15.417-3.484-28.216c6.5028 9.707 14.874 19.891 14.874 19.891s0.19085-13.908-0.91857-25.765c5.2378 9.2137 11.883 18.751 11.883 18.751s2.4734-26.483-0.17397-36.026c-2.6474-9.5434-3.9104-14.598-12.795-12.133-4.1299 1.1456-6.0113 2.8346-6.5822 5.2578-1.8052-1.8238-4.1409-2.4144-7.7859-1.4078z"
         fill="#222b00" />
      <path
         id="path3032"
         d="m477.32 732.83c0.52862 0.14579 1.0806 0.33034 1.6661 0.54344 4.541 1.6531 6.423 3.7186 6.7196 6.5563 2.5191-2.5271 5.6174-2.9828 10.827-0.56075 9.7931 4.5534 7.141 9.8834 2.2099 20.489-4.931 10.605-26.405 32.621-26.405 32.621s1.1168-15.417 3.484-28.216c-6.5028 9.707-14.874 19.891-14.874 19.891s-0.19085-13.908 0.91857-25.765c-5.2378 9.2137-11.883 18.751-11.883 18.751s-2.4734-26.483 0.17397-36.026c2.6474-9.5434 3.9104-14.598 12.795-12.133 4.1299 1.1456 6.0113 2.8346 6.5822 5.2578 1.8052-1.8238 4.1409-2.4144 7.7859-1.4078z"
         fill="#222b00" />
      <path
         id="path3039"
         d="m559.09 445.19c-20.546 0.34282-39.484 32.346-45.719 108.66-6.4358 78.772 16.603 176.05 24.406 176.69 1.2716 0.10389 3.3689-2.2873 6-6.6562 2.0676 4.653 3.8202 7.2895 5.0938 7.3438 1.3646 0.0581 3.58-2.7886 6.2812-7.875 2.4796 5.1888 4.5415 8.125 5.9062 8.125 7.8291 0 38.719-95.059 38.719-174.09 0-79.034-17.343-112.12-38.719-112.12-0.66576-0.0544-1.306-0.0736-1.9688-0.0625z"
         fill="#87cdde"
         style="fill:#bfbfbf;fill-opacity:1" />
      <path
         id="path3052"
         d="m431.03 442.22c0 11.447-9.2797 20.727-20.727 20.727s-20.727-9.2797-20.727-20.727 9.2797-20.727 20.727-20.727 20.727 9.2797 20.727 20.727z"
         fill="#d42aff" />
      <path
         id="path3012"
         d="m410.33 427.05c-1.8923 0-3.724 0.35532-5.3944 0.9883l5.971 14.33-9.4712-12.395c-3.7942 2.7574-6.3004 7.181-6.3004 12.23 0 8.378 6.8171 15.195 15.195 15.195s15.154-6.8171 15.154-15.195-6.7759-15.154-15.154-15.154z" />
      <path
         id="path3055"
         d="m420.38 442.22c0 1.3908-1.1274 2.5182-2.5182 2.5182s-2.5182-1.1274-2.5182-2.5182 1.1274-2.5182 2.5182-2.5182 2.5182 1.1274 2.5182 2.5182z"
         fill="#eaf" />
      <path
         id="path3065"
         d="m354.52 442.22c0 11.447-9.2797 20.727-20.727 20.727s-20.727-9.2797-20.727-20.727 9.2797-20.727 20.727-20.727 20.727 9.2797 20.727 20.727z"
         fill="#d42aff" />
      <path
         id="path3067"
         d="m333.81 427.05c-1.8923 0-3.724 0.35532-5.3944 0.9883l5.971 14.33-9.4712-12.395c-3.7942 2.7574-6.3004 7.181-6.3004 12.23 0 8.378 6.8171 15.195 15.195 15.195s15.154-6.8171 15.154-15.195-6.7759-15.154-15.154-15.154z" />
      <path
         id="path3069"
         d="m343.86 442.22c0 1.3908-1.1274 2.5182-2.5182 2.5182s-2.5182-1.1274-2.5182-2.5182 1.1274-2.5182 2.5182-2.5182 2.5182 1.1274 2.5182 2.5182z"
         fill="#eaf" />
      <g
         id="g3886"
         transform="translate(8.5869)"
         fill="#216778">
        <path
           id="path3071"
           d="m360.31 573.67c-5.6463 6.9381-18.314 11.788-33.068 11.788-14.346 0-26.757-4.5753-32.623-11.206 2.0376 8.7039 10.823 17.983 32.794 17.631 21.971-0.35264 31.353-9.2314 32.897-18.213z" />
        <path
           id="path3847"
           d="m312.31 585.67c-5.6463 6.9381-18.314 11.788-33.068 11.788-14.346 0-26.757-4.5753-32.623-11.206 2.0376 8.7039 10.823 17.983 32.794 17.631 21.971-0.35264 31.353-9.2314 32.897-18.213z" />
        <path
           id="path3849"
           d="m396.31 585.67c-5.6463 6.9381-18.314 11.788-33.068 11.788-14.346 0-26.757-4.5753-32.623-11.206 2.0376 8.7039 10.823 17.983 32.794 17.631 21.971-0.35264 31.353-9.2314 32.897-18.213z" />
        <path
           id="path3851"
           d="m480.31 585.67c-5.6463 6.9381-18.314 11.788-33.068 11.788-14.346 0-26.757-4.5753-32.623-11.206 2.0376 8.7039 10.823 17.983 32.794 17.631 21.971-0.35264 31.353-9.2314 32.897-18.213z" />
        <path
           id="path3855"
           d="m354.31 601.67c-5.6463 6.9381-18.314 11.788-33.068 11.788-14.346 0-26.757-4.5753-32.623-11.206 2.0376 8.7039 10.823 17.983 32.794 17.631 21.971-0.35264 31.353-9.2314 32.897-18.213z" />
        <path
           id="path3857"
           d="m438.31 601.67c-5.6463 6.9381-18.314 11.788-33.068 11.788-14.346 0-26.757-4.5753-32.623-11.206 2.0376 8.7039 10.823 17.983 32.794 17.631 21.971-0.35264 31.353-9.2314 32.897-18.213z" />
        <path
           id="path3859"
           d="m330.31 615.67c-5.6463 6.9381-18.314 11.788-33.068 11.788-14.346 0-26.757-4.5753-32.623-11.206 2.0376 8.7039 10.823 17.983 32.794 17.631 21.971-0.35264 31.353-9.2314 32.897-18.213z" />
        <path
           id="path3861"
           d="m470.31 615.67c-5.6463 6.9381-18.314 11.788-33.068 11.788-14.346 0-26.757-4.5753-32.623-11.206 2.0376 8.7039 10.823 17.983 32.794 17.631 21.971-0.35264 31.353-9.2314 32.897-18.213z" />
        <path
           id="path3863"
           d="m396.31 671.67c-5.6463 6.9381-18.314 11.788-33.068 11.788-14.346 0-26.757-4.5753-32.623-11.206 2.0376 8.7039 10.823 17.983 32.794 17.631 21.971-0.35264 31.353-9.2314 32.897-18.213z" />
        <path
           id="path3874"
           d="m396.31 627.67c-5.6463 6.9381-18.314 11.788-33.068 11.788-14.346 0-26.757-4.5753-32.623-11.206 2.0376 8.7039 10.823 17.983 32.794 17.631 21.971-0.35264 31.353-9.2314 32.897-18.213z" />
        <path
           id="path3876"
           d="m430.31 573.67c-5.6463 6.9381-18.314 11.788-33.068 11.788-14.346 0-26.757-4.5753-32.623-11.206 2.0376 8.7039 10.823 17.983 32.794 17.631 21.971-0.35264 31.353-9.2314 32.897-18.213z" />
        <path
           id="path3878"
           d="m358.31 645.67c-5.6463 6.9381-18.314 11.788-33.068 11.788-14.346 0-26.757-4.5753-32.623-11.206 2.0376 8.7039 10.823 17.983 32.794 17.631 21.971-0.35264 31.353-9.2314 32.897-18.213z" />
        <path
           id="path3880"
           d="m432.31 645.67c-5.6463 6.9381-18.314 11.788-33.068 11.788-14.346 0-26.757-4.5753-32.623-11.206 2.0376 8.7039 10.823 17.983 32.794 17.631 21.971-0.35264 31.353-9.2314 32.897-18.213z" />
      </g>
      <path
         id="path4046"
         d="m184.94 445.19c20.546 0.34282 39.484 32.346 45.719 108.66 6.4358 78.772-16.603 176.05-24.406 176.69-1.2716 0.10389-3.3689-2.2873-6-6.6562-2.0676 4.653-3.8202 7.2895-5.0938 7.3438-1.3646 0.0581-3.58-2.7886-6.2812-7.875-2.4796 5.1888-4.5415 8.125-5.9062 8.125-7.8291 0-38.719-95.059-38.719-174.09 0-79.034 17.343-112.12 38.719-112.12 0.66576-0.0544 1.306-0.0736 1.9688-0.0625z"
         fill="#87cdde"
         style="fill:#bfbfbf;fill-opacity:1" />
    </g>
  </g>
</svg>
