<?xml version="1.0" encoding="UTF-8" standalone="no"?>
<svg
   xmlns:dc="http://purl.org/dc/elements/1.1/"
   xmlns:cc="http://creativecommons.org/ns#"
   xmlns:rdf="http://www.w3.org/1999/02/22-rdf-syntax-ns#"
   xmlns:svg="http://www.w3.org/2000/svg"
   xmlns="http://www.w3.org/2000/svg"
   xmlns:sodipodi="http://sodipodi.sourceforge.net/DTD/sodipodi-0.dtd"
   xmlns:inkscape="http://www.inkscape.org/namespaces/inkscape"
   id="svg2"
   height="325.64999"
   width="404.57001"
   version="1.1"
   inkscape:version="0.91+devel+osxmenu r12859"
   sodipodi:docname="AnimalElephantBlue.svg">
  <defs
     id="defs3785" />
  <sodipodi:namedview
     pagecolor="#ffffff"
     bordercolor="#666666"
     borderopacity="1"
     objecttolerance="10"
     gridtolerance="10"
     guidetolerance="10"
     inkscape:pageopacity="0"
     inkscape:pageshadow="2"
     inkscape:window-width="1280"
     inkscape:window-height="700"
     id="namedview3783"
     showgrid="false"
     inkscape:zoom="1.6551513"
     inkscape:cx="96.554486"
     inkscape:cy="162.825"
     inkscape:window-x="0"
     inkscape:window-y="23"
     inkscape:window-maximized="0"
     inkscape:current-layer="svg2" />
  <metadata
     id="metadata51">
    <rdf:RDF>
      <cc:Work
         rdf:about="">
        <dc:format>image/svg+xml</dc:format>
        <dc:type
           rdf:resource="http://purl.org/dc/dcmitype/StillImage" />
        <dc:title></dc:title>
      </cc:Work>
    </rdf:RDF>
  </metadata>
  <path
     id="path2383"
     d="m 283.8,197.59 c 0.013,60.509 -37.167,109.57 -83.037,109.57 -45.869,0 -83.05,-49.061 -83.037,-109.57 -0.013,-60.508 37.168,-109.57 83.037,-109.57 45.87,0 83.05,49.061 83.037,109.57 z"
     inkscape:connector-curvature="0"
     style="fill:#37abc8;stroke:#000000;stroke-width:4;stroke-linecap:round;stroke-linejoin:round;fill-opacity:1" />
  <path
     id="path2400"
     d="m 379.64,226 c -22.562,37.159 -61.924,29.764 -84.212,22.32 -44.577,-14.889 -93.456,-85.481 -57.156,-153.38 19.301,-78.895 65.587,-79.844 96.164,-87.955 35.688,-6.1476 51.595,-5.3359 59.199,-4.1362 7.603,1.1997 13.904,14.787 3.379,28.192 -21.049,26.809 -40.125,25.651 -34.687,73.477 6.438,57.825 39.875,84.318 17.313,121.48 z"
     inkscape:connector-curvature="0"
     style="fill:#87cdde;stroke:#000000;stroke-width:4;stroke-linecap:round;stroke-linejoin:round;fill-opacity:1" />
  <path
     id="svg_8"
     d="m 24.94,226.64 c 22.572,37.159 61.952,29.764 84.249,22.32 44.597,-14.889 93.498,-85.481 57.182,-153.38 C 147.061,16.686 100.755,15.737 70.164,7.626 34.46,1.4784 18.546,2.2901 10.939,3.4898 3.333,4.6895 -2.97,18.2778 7.559,31.6818 c 21.058,26.809 40.142,25.652 34.702,73.477 -6.441,57.826 -39.893,84.319 -17.321,121.48 z"
     inkscape:connector-curvature="0"
     style="fill:#87cdde;stroke:#000000;stroke-width:4;stroke-linecap:round;stroke-linejoin:round;fill-opacity:1" />
  <path
     id="svg_7"
     d="m 353.28,60.273 6,0 c 1,0 1,-0.4286 2,-0.4286 1,0 1.293,-0.1255 2,-0.4285 0.70697,-0.3031 1.293,-0.1256 2,-0.4286 0.70697,-0.3031 0.29303,-0.55409 1,-0.85719 0.70697,-0.30299 0.29303,-0.55409 1,-0.8571 0.70697,-0.30301 2,-0.4286 2,-0.8571 0,-0.4286 0.29303,-0.55409 1,-0.85719 0.70697,-0.30301 1,-0.4286 2,-0.4286 l 0,-0.4285 1,-0.4286"
     inkscape:connector-curvature="0"
     style="fill:none;stroke:#000000;stroke-width:4;stroke-linecap:round;stroke-linejoin:round;stroke-dasharray:none" />
  <path
     id="svg_11"
     d="m 59.034,65.523 -7.5,0 c -1.25,0 -1.25,-0.429 -2.5,-0.429 -1.25,0 -1.616,-0.125 -2.5,-0.42799 C 45.65,64.363 44.918,64.54 44.034,64.23701 43.15,63.934 43.668,63.68301 42.784,63.38 41.9,63.07701 42.418,62.826 41.534,62.523 c -0.884,-0.30299 -2.5,-0.429 -2.5,-0.857 0,-0.429 -0.366,-0.554 -1.25,-0.85701 -0.884,-0.30299 -1.25,-0.429 -2.5,-0.429 l 0,-0.42799 -1.25,-0.429"
     inkscape:connector-curvature="0"
     style="fill:none;stroke:#000000;stroke-width:4;stroke-linecap:round;stroke-linejoin:round;stroke-dasharray:none" />
  <path
     id="path3245"
     d="m 116.2,298.09 c -0.006,22.68 18.377,25.57 41.057,25.57 22.68,0 41.064,-2.89 41.057,-25.57 0.007,-22.68 -19.15,-35.199 -41.057,-41.069 -34.081,-9.132 -41.063,18.389 -41.057,41.069 z"
     inkscape:connector-curvature="0"
     style="fill:#37abc8;stroke:#000000;stroke-width:4;stroke-linecap:round;stroke-linejoin:round;fill-opacity:1" />
  <path
     id="path3239"
     d="m 189.22,310.88 c 1.644,6.127 -3.25,8.275 -9.546,9.962 -6.296,1.687 -11.608,2.274 -13.248,-3.854 -1.644,-6.127 2.128,-12.463 8.424,-14.149 6.296,-1.687 12.73,1.913 14.37,8.041 z"
     inkscape:connector-curvature="0"
     style="fill:#ffffff;stroke:#000000;stroke-width:4;stroke-linecap:round;stroke-linejoin:round" />
  <path
     id="face"
     d="m 288.49,159.09 c -1.0907,47.795 -40.727,85.652 -88.521,84.547 -47.794,-1.1047 -85.639,-40.753 -84.519,-88.547 1.0897,-47.794 18.073,-86.174 88.52,-84.546 71.861,1.661 85.639,40.753 84.52,88.546 z"
     inkscape:connector-curvature="0"
     style="fill:#37abc8;stroke:#000000;stroke-width:4;stroke-linecap:round;stroke-linejoin:round;fill-opacity:1"
     inkscape:label="" />
  <path
     id="path3157"
     d="m 198.13,140.65 c -0.28629,12.516 -10.665,22.43 -23.181,22.14 -12.516,-0.28929 -22.426,-10.672 -22.133,-23.188 0.28529,-12.516 10.665,-22.429 23.181,-22.139 12.516,0.28929 22.425,10.671 22.133,23.187 z"
     inkscape:connector-curvature="0"
     style="fill:#ffffff;stroke:#000000;stroke-width:4;stroke-linecap:round;stroke-linejoin:round" />
  <path
     id="path3159"
     d="m 250.86,140.65 c -0.28529,12.516 -10.665,22.43 -23.181,22.14 -12.516,-0.28929 -22.425,-10.672 -22.133,-23.188 0.28629,-12.516 10.665,-22.429 23.181,-22.139 12.516,0.28929 22.426,10.671 22.133,23.187 z"
     inkscape:connector-curvature="0"
     style="fill:#ffffff;stroke:#000000;stroke-width:4;stroke-linecap:round;stroke-linejoin:round" />
  <path
     id="path3161"
     d="m 230.71,144.3 c -0.0954,4.1719 -3.5547,7.4768 -7.7266,7.3804 -4.1719,-0.0964 -7.4758,-3.5577 -7.3774,-7.7295 0.0944,-4.1719 3.5547,-7.4758 7.7266,-7.3794 4.1719,0.0964 7.4748,3.5567 7.3774,7.7285 z"
     inkscape:connector-curvature="0"
     style="stroke-width:0" />
  <path
     id="path3163"
     d="m 188.68,144.3 c -0.0954,4.1719 -3.5547,7.4768 -7.7266,7.3804 -4.1719,-0.0964 -7.4758,-3.5577 -7.3784,-7.7296 0.0954,-4.1719 3.5557,-7.4758 7.7276,-7.3794 4.1719,0.0964 7.4748,3.5567 7.3774,7.7285 z"
     inkscape:connector-curvature="0"
     style="stroke-opacity:0" />
  <path
     id="path3220"
     d="m 290.32,297.09 c 0.007,22.68 -18.377,25.57 -41.057,25.57 -22.68,0 -41.063,-2.89 -41.057,-25.57 -0.006,-22.68 19.15,-35.199 41.057,-41.069 34.081,-9.132 41.064,18.389 41.057,41.069 z"
     inkscape:connector-curvature="0"
     style="fill:#37abc8;stroke:#000000;stroke-width:4;stroke-linecap:round;stroke-linejoin:round;fill-opacity:1" />
  <path
     id="path3241"
     d="m 147.78,317.77 c -1.64,6.128 -6.952,5.541 -13.248,3.854 -6.296,-1.687 -11.19,-3.835 -9.546,-9.962 1.64,-6.128 8.074,-9.729 14.37,-8.042 6.296,1.687 10.068,8.023 8.424,14.15 z"
     inkscape:connector-curvature="0"
     style="fill:#ffffff;stroke:#000000;stroke-width:4;stroke-linecap:round;stroke-linejoin:round" />
  <path
     id="path3235"
     d="m 282.22,310.88 c 1.644,6.127 -3.25,8.275 -9.546,9.962 -6.296,1.687 -11.608,2.274 -13.248,-3.854 -1.644,-6.127 2.128,-12.463 8.424,-14.149 6.296,-1.687 12.73,1.913 14.37,8.041 z"
     inkscape:connector-curvature="0"
     style="fill:#ffffff;stroke:#000000;stroke-width:4;stroke-linecap:round;stroke-linejoin:round" />
  <path
     id="path3237"
     d="m 240.78,317.27 c -1.64,6.128 -6.952,5.541 -13.248,3.854 -6.296,-1.687 -11.19,-3.835 -9.546,-9.962 1.64,-6.128 8.074,-9.729 14.37,-8.042 6.296,1.687 10.068,8.023 8.424,14.15 z"
     inkscape:connector-curvature="0"
     style="fill:#ffffff;stroke:#000000;stroke-width:4;stroke-linecap:round;stroke-linejoin:round" />
  <path
     id="path3224"
     d="m 261.06,316.26 c 0.002,6.344 -5.281,7.152 -11.799,7.152 -6.518,0 -11.801,-0.80801 -11.799,-7.152 -0.002,-6.344 5.281,-11.487 11.799,-11.487 6.518,0 11.801,5.143 11.799,11.487 z"
     inkscape:connector-curvature="0"
     style="fill:#ffffff;stroke:#000000;stroke-width:4;stroke-linecap:round;stroke-linejoin:round" />
  <path
     id="path3243"
     d="m 168.06,316.26 c 0.002,6.344 -5.281,7.152 -11.799,7.152 -6.518,0 -11.801,-0.80801 -11.799,-7.152 -0.002,-6.344 5.281,-11.487 11.799,-11.487 6.518,0 11.801,5.143 11.799,11.487 z"
     inkscape:connector-curvature="0"
     style="fill:#ffffff;stroke:#000000;stroke-width:4;stroke-linecap:round;stroke-linejoin:round" />
  <ellipse
     id="svg_1"
     ry="25"
     cx="204.21632"
     rx="26"
     cy="186.17018"
     transform="rotate(1.3241001)"
     style="stroke:#000000;stroke-width:4;stroke-linecap:round" />
  <path
     id="svg_12"
     d="m 160.99,205.96 c 7.2042,6.9533 17.136,13.021 27.154,15.306 10.876,4.1974 23.62,5.5963 32.956,-1.6059"
     inkscape:connector-curvature="0"
     style="fill:none;stroke:#000000;stroke-width:4;stroke-linejoin:round;stroke-dasharray:none" />
  <path
     id="svg_15"
     d="m 169.67,212.95 c 6.192,2.0173 9.6856,17.883 15.879,19.9 6.192,2.0173 15.084,-9.8141 21.276,-7.7978"
     inkscape:connector-curvature="0"
     style="fill:none;stroke:#000000;stroke-width:4;stroke-linejoin:round;stroke-dasharray:none" />
  <path
     id="svg_18"
     d="m 179.13,220.91 c 0,0 -0.0528,0.20682 -0.007,0.30092 0.065,0.13255 0.38795,0.39606 0.48827,0.5134 0.15876,0.18573 0.24064,0.40768 0.23833,0.50766 -0.002,0.10098 0.12263,0.10387 0.12497,0.003 0.002,-0.1 -0.0842,-0.12096 -0.24298,-0.30669 -0.10032,-0.11737 -0.28161,-0.23658 -0.36795,-0.30959 -0.17367,-0.14605 -0.19711,-0.21363 -0.24295,-0.30769 -0.065,-0.13255 -0.12035,-0.20285 -0.12266,-0.10288 -0.002,0.1 0.002,0.36315 0.11568,0.4048 0.16172,0.0577 8.1e-4,0.48412 0.23602,0.6076 0.10475,0.0554 0.0986,-0.11274 0.007,-0.30092 -0.065,-0.13254 -0.21391,-0.30904 -0.24065,-0.40768 -0.0589,-0.21941 -0.36794,-0.30958 -0.36563,-0.40956 0.002,-0.10095 -0.0481,0.006 -0.002,0.1 0.0649,0.13254 0.16903,0.34699 0.3633,0.51051 0.19427,0.16356 0.37883,0.27183 0.49291,0.31249 0.1617,0.0588 0.20625,0.25182 0.36792,0.31059 0.11409,0.0406 0.30624,0.0371 0.37724,-0.0923 0.0501,-0.0919 0.002,-0.33104 0.13656,-0.49899 0.15138,-0.18753 0.29321,-0.26526 0.37955,-0.19227 0.17367,0.14605 -0.007,0.30192 -0.009,0.4019 l -0.0116,0.50185 -0.0139,0.60284 c -0.002,0.1 -0.13423,0.398 -0.009,0.40089 0.12496,0.003 0.0609,-0.16862 0.13192,-0.29803 0.0501,-0.0919 0.04,-0.12911 0.12961,-0.19805 0.0896,-0.069 0.005,-0.20093 0.002,-0.1 -0.002,0.1 0.0243,0.20362 -0.007,0.30092 -0.0691,0.21745 -0.0841,0.30716 -0.13426,0.39901 -0.071,0.12941 -0.18587,0.16576 -0.25689,0.29515 -0.0501,0.0919 0.0178,0.0534 0.12497,0.003 0.24067,-0.11244 0.38419,-0.39323 0.51146,-0.49029 0.25458,-0.19519 0.40415,-0.26075 0.63413,-0.38746 0.14488,-0.0797 0.25457,-0.19516 0.37954,-0.19227 0.12497,0.003 0.1536,0.0196 0.24529,0.20671 0.065,0.13252 0.12032,0.20383 0.11799,0.30481 l -0.009,0.4009 -0.0116,0.50184 c -0.005,0.20097 -0.0774,0.40533 -0.1389,0.59995 -0.069,0.21748 -0.0975,0.45389 -0.25922,0.39613 -0.11406,-0.0417 -0.17095,-0.26403 0.009,-0.40191 0.0896,-0.0689 0.43816,-0.26094 0.50915,-0.39031 0.0501,-0.0919 0.079,-0.25725 0.2592,-0.39512 0.18024,-0.13787 -0.094,-0.0882 -0.002,0.1 0.065,0.13252 0.17804,0.17414 0.24298,0.3067 0.0458,0.0941 -0.007,0.30192 -0.009,0.40187 l -0.009,0.40191 c -0.002,0.1 -0.12728,0.0971 -0.25224,0.0942 -0.12497,-0.003 -0.20176,-0.0127 -0.24762,-0.10576 -0.0649,-0.13352 -0.2476,-0.10673 -0.24529,-0.20671 0.002,-0.10099 0.15516,-0.17847 0.38419,-0.39324 0.2924,-0.27332 0.50915,-0.39035 0.63643,-0.4874 0.12728,-0.0971 0.12961,-0.19808 0.37954,-0.1923 l 0.49987,0.0115 c 0.12497,0.003 0.2476,0.10676 0.37025,0.20963 0.12266,0.10286 0.12033,0.20383 0.11568,0.40476 l -0.009,0.4009 c -0.007,0.30192 -0.19052,0.36669 -0.26156,0.4971 -0.0501,0.0909 -0.13871,0.15883 -0.25455,0.19415 -0.16422,0.0512 -0.37724,0.0923 -0.50221,0.0894 -0.24993,-0.006 -0.41119,-0.0395 -0.49753,-0.11253 -0.0863,-0.073 0.005,-0.19993 0.0116,-0.50185 0.002,-0.1 -0.008,-0.30827 0.13657,-0.49899 0.23317,-0.30768 0.28454,-0.36651 0.63874,-0.58738 0.27712,-0.17465 0.50685,-0.29037 0.75678,-0.28459 0.12497,0.003 0.20177,0.0127 0.2476,0.10673 0.065,0.13254 0.0913,0.20516 0.11801,0.30383 0.0589,0.22041 0.22075,0.31615 0.3633,0.51051 0.064,0.0875 -0.0574,0.40778 -0.0116,0.50187 0.065,0.13252 0.24065,0.40765 0.23833,0.50763 -0.002,0.10098 -0.0882,0.053 -0.24993,-0.006 -0.11408,-0.0407 -0.24531,-0.2057 -0.36563,-0.40956 -0.12032,-0.20382 -0.11799,-0.30481 -0.11568,-0.40479 0.005,-0.20094 0.0973,-0.44587 0.26153,-0.49607 0.34858,-0.10696 0.37955,-0.19227 0.62948,-0.18649 0.24993,0.006 0.37727,-0.007 0.49987,0.0115 0.38872,0.06 0.4236,0.15183 0.61788,0.31536 0.19427,0.16354 0.51593,0.35501 0.61554,0.41632 0.31662,0.19337 0.42332,0.38088 0.48827,0.51343 0.0458,0.0941 0.0531,0.17128 0.11801,0.30381 0.0458,0.0941 -0.25227,0.0952 -0.37724,0.0923 l -0.62483,-0.0144 -0.62483,-0.0144 c -0.12497,-0.003 -0.28623,-0.0366 -0.37257,-0.10965 -0.0863,-0.073 -0.0432,-0.20906 0.007,-0.30092 0.071,-0.1294 0.25689,-0.29514 0.38419,-0.39324 0.12727,-0.0971 0.12958,-0.19703 0.37952,-0.19126 l 0.49986,0.0116 c 0.12497,0.003 0.37028,0.20859 0.61788,0.31536 0.24762,0.10576 0.45387,0.35756 0.61554,0.41634 0.1141,0.0406 0.18173,0.18723 0.24067,0.40664 0.0267,0.0987 -0.005,0.20097 -0.007,0.30192 -0.002,0.1 -0.005,0.19996 -0.12958,0.19707 -0.24994,-0.006 -0.37843,0.0143 -0.49987,-0.0115 -0.27075,-0.0573 -0.38872,-0.23305 -0.61788,-0.31537 -0.1617,-0.0577 -0.30298,-0.17705 -0.36794,-0.30958 -0.0458,-0.0941 0.005,-0.20097 0.007,-0.30092 0.002,-0.10098 0.10971,-0.11551 0.25458,-0.19519 0.22999,-0.12671 0.36337,-0.14163 0.75444,-0.18361 0.24769,-0.0263 0.62484,0.0145 0.99974,0.0231 l 0.99973,0.0231 c 0.49987,0.0115 0.88255,0.20343 1.1177,0.32692 0.10475,0.0554 0.30532,0.0771 0.37026,0.2096 0.0458,0.0941 -0.005,0.20096 -0.007,0.30092 -0.005,0.20096 0.0276,0.44879 -0.13656,0.49899 -0.11586,0.0363 -0.16496,0.12622 -0.25458,0.19515 -0.0896,0.0689 -0.24993,-0.006 -0.3749,-0.009 -0.12497,-0.003 -0.24993,-0.006 -0.37259,-0.10864 -0.12263,-0.10387 -0.15664,-0.23369 -0.24298,-0.30672 -0.0863,-0.073 -0.34321,-0.12396 -0.24295,-0.30769 0.071,-0.12938 0.3995,-0.0598 0.62948,-0.1865 0.14488,-0.0797 0.48762,-0.10775 0.88172,-0.2807 0.24455,-0.10738 0.50451,-0.18938 0.75444,-0.1836 0.12497,0.003 0.28857,-0.0643 0.3749,0.009 0.0863,0.073 0.0531,0.17126 0.11799,0.30481 0.0917,0.18717 -0.007,0.30092 -0.009,0.40086 l -0.0116,0.50188 c -0.005,0.20094 0.013,0.30339 -0.009,0.4019 -0.0702,0.31246 -0.26154,0.49607 -0.3865,0.49318 -0.12497,-0.003 -0.30763,0.0239 -0.37259,-0.10864 -0.0458,-0.0941 -0.18259,-0.1933 -0.23834,-0.50765 -0.0177,-0.0994 0.005,-0.20093 0.009,-0.4019 0.002,-0.1 -0.0129,-0.21835 0.13193,-0.29803 0.22998,-0.12671 0.5022,-0.0894 0.62716,-0.0865 l 0.62484,0.0144 c 0.12496,0.003 0.25347,-0.0171 0.3749,0.009 0.27072,0.0583 0.20624,0.25184 0.36792,0.31058 0.11409,0.0407 0.20858,0.15089 0.37027,0.20862 0.11407,0.0417 0.36793,0.31059 0.36562,0.41057 -0.002,0.10095 -0.0138,0.16272 -0.12962,0.19805 -0.16419,0.0502 -0.37954,0.1923 -0.50451,0.18941 l -0.49986,-0.0115 c -0.12497,-0.003 -0.16127,-0.0337 -0.2476,-0.10676 -0.0863,-0.073 -0.091,-0.21816 0.009,-0.4009 0.14105,-0.25981 0.20685,-0.59639 0.77069,-0.88641 0.31482,-0.16178 0.83733,-0.22073 1.2613,-0.473 0.58319,-0.3476 1.0825,-0.57312 1.5158,-0.66815 0.2403,-0.0535 0.54041,-0.0545 0.87246,0.12021 0.14824,0.0784 0.30524,0.29613 0.36096,0.6115 0.0531,0.29831 -0.0162,0.70281 -0.0186,0.8028 -0.005,0.20093 -0.0446,0.33004 -0.13426,0.39901 -0.18023,0.13787 -0.3749,-0.009 -0.49986,-0.0115 -0.24994,-0.006 -0.28623,-0.0366 -0.37257,-0.10965 -0.0863,-0.073 0.005,-0.19996 0.007,-0.30092 0.002,-0.1 0.12727,-0.0971 0.25224,-0.0942 0.12497,0.003 0.26084,-0.033 0.3749,0.009 0.16172,0.0577 0.12032,0.20382 0.11801,0.30381 -0.005,0.20096 -0.0186,0.28364 -0.25922,0.39612 -0.10718,0.0495 -0.26946,0.0168 -0.50218,0.0884 -0.16419,0.0502 -0.25227,0.0952 -0.37723,0.0923 -0.24994,-0.006 -0.50339,0.0114 -0.62484,-0.0144 -0.27072,-0.0583 -0.38113,-0.17185 -0.49522,-0.21249 -0.32439,-0.11654 -0.28158,-0.23756 -0.36792,-0.31059 -0.0863,-0.073 0.015,0.001 -0.002,0.10098 -0.0725,0.40942 -0.61095,0.51001 -1.0183,0.77966 -0.47948,0.31802 -0.89397,0.46449 -1.6408,0.66526 -0.63613,0.17135 -1.3278,0.36642 -1.7611,0.46144 -0.36092,0.0797 -0.69968,-0.1082 -0.7498,-0.0173 -0.071,0.13038 0.39923,0.0813 0.74283,0.31925 0.13489,0.0931 0.28394,0.1356 0.37027,0.20859 0.0863,0.073 0.13042,0.28709 0.36561,0.41057 0.10475,0.0554 0.22771,0.0153 0.37026,0.2096 0.064,0.0865 0.25673,0.14498 0.37259,0.10865 0.16421,-0.0502 0.43329,-0.26707 0.63874,-0.58739 0.18055,-0.2809 0.3302,-0.78359 0.40044,-1.096 0.0668,-0.29554 0.10007,-0.60783 0.0209,-0.90375 -0.059,-0.21941 -0.20392,-0.35183 -0.36564,-0.40956 -0.11406,-0.0417 -0.25903,-0.045 -0.3749,-0.009 -0.16419,0.0502 -0.25457,0.19516 -0.50913,0.38934 -0.1273,0.0981 -0.24932,0.35735 -0.5138,0.59129 -0.18688,0.16573 -0.29958,0.32516 -0.51378,0.59027 -0.0958,0.11882 -0.0548,0.29282 -0.38419,0.39324 -0.11586,0.0363 -0.1273,0.0981 -0.002,0.10098 0.12497,0.003 0.28395,-0.2105 0.38419,-0.39323 0.071,-0.12941 0.19251,-0.27963 0.26153,-0.4961 0.0615,-0.19461 0.15278,-0.42158 0.0163,-0.70279 -0.065,-0.13254 -0.34954,-0.32716 -0.49058,-0.41345 -0.2239,-0.13622 -0.62252,-0.11443 -0.74749,-0.11732 -0.12497,-0.003 -0.37721,0.0913 -0.50451,0.18939 -0.25456,0.19418 -0.35836,0.40082 -0.51611,0.69125 -0.11176,0.20448 -0.13657,0.49899 -0.14584,0.89989 l -0.007,0.30192 c -0.002,0.1 0.0307,0.27179 0.12034,0.20282 0.0896,-0.069 0.21868,-0.19999 0.25689,-0.29514 0.13896,-0.34289 0.45461,-0.49662 0.51611,-0.69126 0.069,-0.21646 0.26385,-0.59605 0.26618,-0.69704 0.005,-0.20093 0.10561,-0.41466 0.0139,-0.60183 -0.0649,-0.13352 -0.2476,-0.10676 -0.49753,-0.11253 -0.12497,-0.003 -0.34199,0.21215 -0.50916,0.39034 -0.21226,0.22517 -0.42835,0.57327 -0.64572,0.88931 -0.32396,0.47067 -0.39346,0.79413 -0.3981,0.99507 l -0.007,0.30094 c -0.002,0.10095 0.12264,0.10384 0.2476,0.10673 0.12497,0.003 0.27222,0.0373 0.5022,-0.0894 0.14488,-0.0797 0.2783,-0.18265 0.51147,-0.49032 0.14445,-0.19072 0.26153,-0.49607 0.26849,-0.79702 l 0.0302,-1.3056 c 0.007,-0.30092 -0.25974,-0.57714 -0.48362,-0.71437 -0.14104,-0.0863 -0.24763,-0.10575 -0.37259,-0.10864 -0.24994,-0.006 -0.49514,0.0436 -0.63412,0.38743 -0.0764,0.19031 -0.32091,0.3817 -0.39115,0.69415 -0.0446,0.19702 -0.009,0.40089 -0.0116,0.50187 l 0.007,-0.30192 c 0.007,-0.30091 -0.13539,-0.67731 -0.479,-0.91433 -0.26875,-0.18726 -0.47443,-0.46308 -0.86314,-0.52307 -0.24619,-0.0377 -0.49987,-0.0116 -0.7498,-0.0173 -0.12497,-0.003 -0.36471,0.19963 -0.50916,0.39034 -0.23317,0.30769 -0.25922,0.39613 -0.51845,0.79223 -0.12958,0.19706 -0.3865,0.49321 -0.6457,0.88833 -0.12961,0.19805 -0.34662,0.41309 -0.5138,0.59129 -0.10563,0.11258 0.11356,0.0636 0.25458,-0.19516 0.10025,-0.18276 0.25922,-0.39613 0.38881,-0.5932 0.12961,-0.19804 0.31982,-0.37769 0.38884,-0.59417 0.0615,-0.19461 0.25922,-0.39612 0.13425,-0.39901 -0.12496,-0.003 -0.007,0.30192 -0.0139,0.60287 l -0.007,0.30092 c -0.002,0.10095 -0.005,0.20093 0.12033,0.20382 0.12496,0.003 0.3749,0.009 0.50217,-0.0884 0.1273,-0.0981 0.39581,-0.37593 0.63646,-0.48841 0.10717,-0.0495 0.37952,-0.19129 0.50913,-0.38934 0.12961,-0.19805 0.38188,-0.29326 0.3749,0.009 -0.005,0.20094 -0.24727,0.70148 -0.40041,1.095 -0.11801,0.30235 -0.19092,0.51373 -0.51611,0.69126 -0.10234,0.0566 -0.24762,-0.10576 -0.24067,-0.40667 l 0.0209,-0.90375 c 0.009,-0.4019 0.0162,-0.70281 -0.10407,-0.90666 -0.12033,-0.20383 -0.003,-0.38418 -0.23834,-0.50763 -0.10475,-0.0554 -0.26776,-0.0132 -0.37954,0.19227 -0.15773,0.28944 -0.30423,0.5261 -0.51843,0.79125 -0.19153,0.23763 -0.33869,0.50228 -0.38883,0.59417 -0.071,0.12937 -0.12497,-0.003 -0.12032,-0.20383 l 0.0511,-2.2094 0.0232,-1.0037 c 0.007,-0.30092 -0.12711,-0.34303 -0.24298,-0.30669 -0.16419,0.0502 -0.0943,0.40191 -0.13888,0.59894 -0.0702,0.31246 -0.19946,0.58056 -0.26851,0.79803 -0.0615,0.19364 0.0803,0.33293 -0.009,0.4019 -0.0896,0.069 -0.0675,-0.41167 -0.11334,-0.50578 -0.065,-0.13251 -0.24531,-0.2057 -0.37028,-0.20859 -0.12497,-0.003 -0.21762,0.24104 -0.38186,0.29226 -0.11583,0.0353 -0.31264,0.24083 -0.52075,0.89219 -0.15524,0.48455 -0.39321,0.87015 -0.53467,1.494 -0.0669,0.29554 -1e-4,0.95625 -0.27082,0.89798 -0.48475,-0.10323 -0.16553,-0.93108 0.3126,-2.7055 0.19253,-0.71275 0.28992,-1.5077 0.42363,-2.0998 0.0702,-0.31145 0.17287,-0.46811 0.2592,-0.39512 0.17367,0.14608 -0.009,0.40089 -0.0139,0.60186 l -0.009,0.4019 -0.007,0.30092 -0.0116,0.50185 c -0.005,0.20096 -0.12417,0.48228 0.11103,0.60573 0.10475,0.0554 0.12728,-0.0971 0.13192,-0.29804 0.002,-0.10095 0.0387,0.10193 -0.0116,0.50188 -0.0771,0.60736 -0.1505,1.1018 -0.15745,1.4027 l -0.0162,0.70278 0.009,-0.40187 c 0.0232,-1.0037 0.25437,-2.3067 0.31258,-2.7045 0.0748,-0.50842 0.27082,-0.898 0.14586,-0.90089 -0.24994,-0.006 -0.0116,0.50187 -0.0209,0.90378 l -0.0279,1.2047 -0.0162,0.70282 c -0.002,0.1 0.18674,0.0133 0.25922,-0.39613 0.0702,-0.39747 0.0116,-0.50185 0.0162,-0.70281 0.002,-0.1 0.0919,-0.16891 0.002,-0.1 -0.0896,0.069 -0.24759,-0.10676 -0.37256,-0.10964 -0.12497,-0.003 -0.18587,0.16576 -0.25689,0.29514 -0.0501,0.0919 0.0298,0.3568 -0.13195,0.29903 -0.11405,-0.0417 0.009,-0.4019 0.0163,-0.70281 0.005,-0.20094 -0.0475,-0.58625 -0.10639,-0.80667 -0.0525,-0.19627 -0.12657,-0.36603 -0.24067,-0.40667 -0.16167,-0.0587 -0.25688,0.29515 -0.38881,0.59317 -0.13192,0.29803 -0.18038,0.70702 -0.27313,0.99795 -0.069,0.21745 -0.26156,0.49708 -0.13659,0.49997 0.3749,0.009 0.0722,-0.48344 0.14121,-0.69989 0.0928,-0.29195 -0.0276,-0.44879 0.13659,-0.5 0.2327,-0.0706 0.4681,0.0878 0.74282,0.31925 0.27475,0.23041 0.48596,0.61338 0.98118,0.8259 0.49522,0.21249 0.86548,0.42212 1.1131,0.52784 0.49522,0.21252 0.70271,0.45337 0.9858,0.62598 0.22391,0.13619 0.37652,0.37178 0.49058,0.41343 0.16171,0.0577 0.35884,0.27035 0.24297,0.30669 -0.16419,0.0502 -0.32777,-0.5327 -0.72891,-0.92108 -0.33946,-0.32992 -0.49291,-0.31247 -0.61787,-0.31536 -0.12497,-0.003 -0.12728,0.0971 -0.13193,0.29803 l -0.0186,0.8028 c -0.009,0.4019 -0.19456,0.7577 -0.0209,0.90375 0.0863,0.073 0.20456,0.32482 0.3633,0.51054 0.10029,0.11835 0.24529,0.20671 0.37025,0.2096 0.12497,0.003 0.12728,-0.0971 0.13426,-0.39901 0.007,-0.30092 -0.0498,-0.65932 -0.3517,-1.0124 -0.15874,-0.18573 -0.39315,-0.51722 -0.61092,-0.61627 -0.39295,-0.18012 -0.24065,-0.40768 -0.36561,-0.41057 -0.12497,-0.003 -0.12961,0.19808 -0.13193,0.29803 -0.009,0.4019 -0.057,0.82092 0.10177,1.0066 0.20161,0.23574 0.35632,0.81247 0.60161,1.0192 0.12266,0.10287 0.093,0.43326 0.48596,0.61341 0.10886,0.0505 0.2677,0.0592 0.3749,0.009 0.24067,-0.11247 0.0184,-0.36268 0.13423,-0.398 0.16424,-0.0512 0.0819,0.22094 0.24067,0.40667 0.10029,0.11835 0.12032,0.20382 0.11798,0.30478 -0.002,0.1 0.079,0.34894 0.24067,0.40667 0.11407,0.0416 0.0457,-0.11696 0.26385,-0.59605 0.19077,-0.4207 0.44511,-0.56186 0.51611,-0.69126 0.0501,-0.0919 0.0623,-0.0106 0.11801,0.3038 0.0354,0.19888 -0.15278,0.42161 -0.0162,0.70282 0.065,0.13254 0.1757,0.27513 0.24065,0.40768 0.0458,0.0941 0.12032,0.20382 0.24762,0.10576 0.12728,-0.0971 0.13192,-0.29803 0.25922,-0.39613 0.12728,-0.0971 0.12959,-0.19707 0.12497,0.003 -0.002,0.10098 0.0567,0.18535 0.11568,0.40479 0.0267,0.0986 0.12263,0.10384 0.12496,0.003 0.002,-0.1 0.15357,-0.28254 0.25923,-0.39613 0.16717,-0.17819 0.25919,-0.39511 0.13423,-0.398 -0.12497,-0.003 -0.005,0.20094 -0.007,0.30092 -0.002,0.1 -0.005,0.20097 0.12032,0.20385 0.24994,0.006 0.50452,-0.18941 0.75909,-0.38457 0.25458,-0.19516 0.37889,-0.42337 0.51378,-0.59027 0.15137,-0.18757 0.27189,-0.29482 0.25458,-0.19519 -0.0725,0.40944 -0.39115,0.69414 -0.26153,0.4961 0.12961,-0.19808 0.2909,-0.51142 0.39114,-0.69415 0.14105,-0.25981 0.63877,-0.5884 0.38883,-0.59417 -0.12496,-0.003 0.12033,0.20382 0.11799,0.3048 -0.002,0.1 -0.25455,0.19415 -0.38185,0.29226 -0.12728,0.0971 -0.22016,0.35099 -0.38186,0.29225 -0.11408,-0.0406 0.007,-0.30092 0.0116,-0.50187 l 0.0116,-0.50185 c 0.002,-0.10098 -0.0377,-0.23094 -0.24993,-0.006 -0.16715,0.1782 -0.42802,0.51524 -0.64572,0.88931 -0.18959,0.3267 -0.58184,0.72177 -0.77069,0.88642 -0.30418,0.26407 -0.50449,0.1884 -0.50218,0.0884 0.009,-0.40188 0.0839,-0.68523 0.28011,-1.2999 0.21891,-0.6861 0.35927,-1.003 0.53467,-1.494 0.10807,-0.3046 0.51146,-0.49032 0.50915,-0.39035 -0.007,0.30192 -0.0654,0.57765 -0.27082,0.89797 -0.18056,0.28191 -0.436,0.60108 -0.64803,0.98929 -0.0501,0.0919 0,0 0.005,-0.19993 l 0.0186,-0.8038 c 0.009,-0.40089 0.06,-0.0876 -0.26851,0.79803 -0.11305,0.30347 -0.13888,0.59894 -0.14353,0.79987 -0.007,0.30094 -0.15419,0.39657 -0.13192,0.29806 0.0702,-0.31149 0.363,-0.6018 0.52076,-0.89223 0.11176,-0.20447 0.17695,-0.428 0.39114,-0.69415 0.0958,-0.11781 0.12032,0.20386 0.11568,0.4048 l -0.0139,0.60283 -0.0139,0.60186 c -0.002,0.10096 0.004,0.24016 0.12033,0.20383 0.16421,-0.0502 0.18256,-0.23886 0.38419,-0.39324 0.20159,-0.15337 0.2592,-0.39512 0.51377,-0.59027 0.1273,-0.0981 0.38186,-0.29226 0.50683,-0.28937 0.12496,0.003 0.16128,0.0327 0.24762,0.10575 0.0863,0.073 0.18172,0.18726 0.24064,0.40768 0.0267,0.0976 -0.007,0.30092 -0.009,0.40089 -0.002,0.10099 0,0 0.12958,-0.19704 0.12961,-0.19807 0.49749,-0.75072 0.77998,-1.2883 0.44676,-0.84992 0.20715,-1.2155 0.53236,-1.3941 0.10233,-0.0566 0.12728,-0.0971 0.12496,0.003 -0.005,0.20094 -0.13285,0.38201 -0.28011,1.2999 -0.0479,0.29795 -0.10424,0.70175 -0.14816,1.0008 -0.0748,0.50842 0.0509,0.22124 0.25457,-0.19519 0.18792,-0.38376 0.3981,-0.99507 0.91655,-1.7873 0.12959,-0.19707 0.30016,-0.56621 0.3865,-0.49321 0.0863,0.073 -0.009,0.4019 -0.0139,0.60287 -0.0116,0.50185 -0.15745,1.4027 -0.28937,1.7008 -0.13193,0.29805 0.007,0.65435 -0.26387,0.59709 -0.12143,-0.0258 -0.034,-0.30388 0.0162,-0.70281 0.0771,-0.60739 0.80944,-1.7838 1.0531,-2.2863 0.14284,-0.29478 0.21726,-1.0042 0.64572,-0.88933 0.23759,0.0635 -0.009,0.4019 -0.0186,0.80279 l -0.0255,1.1047 c -0.007,0.30092 0.0572,0.20837 0.13425,-0.39902 0.0379,-0.29919 0.25689,-0.29514 0.2592,-0.39511 0.002,-0.10099 0.0925,0.36823 -0.38881,0.59316 -0.10719,0.0505 -0.12265,-0.10286 -0.11801,-0.30381 l 0.0302,-1.3056 c 0.007,-0.30092 0.13536,-0.57603 0.0139,-0.60183 -0.27072,-0.0583 -0.30813,0.47799 -0.52075,0.8922 -0.34565,0.67319 -0.96853,2.1752 -1.1874,2.6843 -0.16806,0.39023 -0.51611,0.69125 -0.64108,0.68837 -0.12496,-0.003 -0.10872,-0.7057 -0.0925,-1.4085 0.0139,-0.60183 0.3582,-1.9952 0.43754,-2.7016 0.034,-0.30029 0.0186,-0.80377 0.0163,-0.70281 -0.009,0.40089 0.27063,1.0145 -0.41899,1.8988 -0.18659,0.23974 -0.28459,1.0607 -0.77069,0.88641 -0.22916,-0.0823 0.009,-0.4019 0.0162,-0.70281 0.0139,-0.60284 0.14355,-0.80092 0.0186,-0.8038 -0.12497,-0.003 -0.005,0.20096 -0.009,0.4019 -0.002,0.1 -0.12728,0.0971 -0.25224,0.0942 -0.12497,-0.003 -0.15126,0.18256 -0.25691,0.29615 -0.33533,0.35635 -0.2932,0.6114 -0.39346,0.79413 -0.21205,0.38918 -0.37723,0.0923 -0.37025,-0.20963 0.007,-0.30092 0.0873,-1.0933 0.15976,-1.5027 0.0356,-0.19924 0.009,-0.40191 0.007,-0.30092 -0.009,0.40086 0.0224,0.84974 -0.41201,1.5969 -0.18962,0.32771 -0.33738,0.79143 -0.77069,0.88642 -0.12064,0.0262 -0.24762,-0.10576 -0.23834,-0.50762 l 0.0418,-1.8075 c 0.0116,-0.50185 -0.30242,-0.41811 -0.3749,-0.009 -0.0529,0.29787 -0.26325,0.96018 -0.52773,1.1941 -0.18686,0.16473 -0.33082,0.33445 -0.50449,0.1884 -0.0863,-0.073 -0.0498,-0.48529 -0.10872,-0.7057 -0.0268,-0.0976 -0.17857,-0.32321 -0.24762,-0.10576 -0.0927,0.29093 -0.32193,0.64272 -0.53005,1.2941 -0.0615,0.19364 -0.12422,0.39823 -0.13192,0.29803 -0.0489,-0.61027 -0.0948,-1.3085 -0.0739,-2.2123 0.007,-0.30092 0.0525,-0.67197 0.13888,-0.59894 0.26001,0.21905 0.0726,0.71085 -0.0255,1.1047 -0.21044,0.83939 -0.56067,1.2344 -1.1572,1.3796 -0.11968,0.0282 -0.52595,-0.008 -0.61554,-0.41631 -0.15385,-0.70076 -0.22209,-1.2105 -0.2128,-1.6124 l 0.0116,-0.50185 c -0.007,0.30092 -0.0426,0.63319 -0.40274,1.196 -0.20546,0.32034 -0.46413,0.69246 -0.64108,0.68837 -0.17695,-0.004 -0.24065,-0.40768 -0.236,-0.60862 l 0.0302,-1.3046 -0.007,0.30092 -0.0279,1.2047 c -0.002,0.10098 0.0494,-0.0149 -0.11801,-0.30381 -0.19043,-0.32947 -0.2244,-1.1105 -0.21513,-1.5114 0.009,-0.4019 -0.0237,-0.5747 -0.11334,-0.50577 -0.0896,0.0689 -0.005,0.20097 -0.12961,0.19808 -0.12497,-0.003 -0.22089,-0.007 -0.24763,-0.10576 -0.11785,-0.43985 -0.42466,-0.49497 -0.48362,-0.71437 -0.0267,-0.0986 -0.12032,-0.20382 -0.24529,-0.20671 -0.24993,-0.006 -0.42075,-0.10175 -0.74515,-0.2183 -0.11408,-0.0407 -0.30529,-0.0771 -0.37026,-0.2096 -0.0458,-0.0941 -0.0317,-0.23081 -0.11801,-0.30381 -0.0863,-0.073 -0.0487,-0.14416 -0.24298,-0.3067 -0.19427,-0.16356 -0.28392,-0.13659 -0.37025,-0.20963 -0.0863,-0.073 0.0437,-0.24606 -0.11801,-0.30381 -0.11406,-0.0416 -0.12032,-0.20382 -0.24529,-0.20671 -0.12497,-0.003 -0.20854,-0.15186 -0.37026,-0.20963 -0.11405,-0.0417 -0.20853,-0.15186 -0.37025,-0.2096 -0.11408,-0.0406 -0.0836,-0.14897 -0.24529,-0.20672 -0.11408,-0.0406 0,0 0.002,-0.1 0.005,-0.20097 -0.27064,0.11176 -0.12961,0.19805 0.22391,0.13622 0.49291,0.31247 0.61788,0.31536 0.24993,0.006 0.20606,0.25983 0.37025,0.20963 0.11587,-0.0363 0.0956,-0.3289 0.009,-0.4019 -0.0863,-0.073 -0.17801,-0.17417 -0.24298,-0.3067 -0.0458,-0.0941 -0.0813,-0.24895 -0.24295,-0.30769 -0.11408,-0.0407 -0.12266,-0.10288 -0.24762,-0.10576 -0.12497,-0.003 -0.04,0.12911 -0.12961,0.19804 -0.0896,0.069 -0.21595,0.12505 -0.12961,0.19808 0.0863,0.073 0.20857,0.15086 0.37025,0.2096 0.22918,0.0813 0.37259,0.10865 0.62252,0.11443 0.12497,0.003 0.16129,0.0327 0.24762,0.10576 0.0863,0.073 0.12264,0.10384 0.12033,0.20382 -0.002,0.10099 0.0995,0.15233 0.37025,0.20961 0.12145,0.0258 0.22681,0.0542 0.49753,0.11253 0.12145,0.0258 0.25851,0.068 0.37259,0.10865 0.32441,0.11654 0.49291,0.31248 0.61555,0.41635 0.12265,0.10286 0.20858,0.15086 0.37025,0.2096 0.11409,0.0406 0.23156,0.0224 0.37259,0.10865 0.22391,0.13619 0.28392,0.13659 0.37026,0.2096 0.0863,0.073 0.24993,0.006 0.3749,0.009 0.12496,0.003 0.24762,0.10577 0.37025,0.20961 0.12266,0.10287 0.24762,0.10576 0.37026,0.20963 0.12265,0.10287 0.24762,0.10576 0.37259,0.10865 l 0.3749,0.009 c 0.12496,0.003 0.16128,0.0327 0.24762,0.10575 0.0863,0.073 0.0836,0.14897 0.24529,0.20675 0.11406,0.0416 0.12263,0.10384 0.2476,0.10673 0.12496,0.003 0.26084,-0.033 0.3749,0.009 0.16171,0.0578 0.15895,0.13371 0.24528,0.20674 0.17368,0.14606 0.24763,0.10577 0.37259,0.10865 0.12497,0.003 0.24763,0.10575 0.37259,0.10864 0.12497,0.003 0.26082,-0.032 0.3749,0.009 0.1617,0.0588 0.25618,0.16898 0.37026,0.20963 0.16169,0.0588 0.2476,0.10673 0.49753,0.11251 0.24993,0.006 0.48374,0.0602 0.87245,0.1202 0.1226,0.0188 0.4112,0.0395 0.49754,0.11254 0.17367,0.14605 0.41122,0.0385 0.49755,0.11152 0.0863,0.073 0.24994,0.006 0.3749,0.009 l 0.62484,0.0144 0.7498,0.0173 c 0.49986,0.0116 0.71075,0.0624 0.87245,0.1202 0.11407,0.0417 0.0813,0.24896 0.24296,0.3077 0.11409,0.0406 0.25568,0.0599 0.49755,0.11154 0.27073,0.0583 0.33352,0.15475 0.49522,0.21249 0.11409,0.0407 0.16129,0.0327 0.24763,0.10576 0.17367,0.14605 0.25114,0.0838 0.37256,0.10965 0.27075,0.0573 0.37259,0.10864 0.49756,0.11152 l 0.49986,0.0116 0.3749,0.009 0.49987,0.0116 c 0.12497,0.003 0.37257,0.10965 0.3749,0.009 0.002,-0.1 -0.49987,-0.0115 -0.62483,-0.0144 -0.49987,-0.0115 -1.139,-0.14135 -1.7495,-0.0404 -0.27313,0.0457 -0.62716,0.0865 -0.8771,0.0808 l -0.3749,-0.009 c -0.12496,-0.003 -0.54038,0.0535 -0.87243,-0.1212 -0.14824,-0.0774 -0.62252,-0.11442 -1.1177,-0.32692 -0.24763,-0.10575 -0.61066,-0.23817 -1.3654,-0.43364 -0.49218,-0.12741 -1.5087,-0.1149 -2.1175,-0.35005 -0.2528,-0.0979 -0.83186,-0.31829 -1.4903,-0.43653 -0.24406,-0.0437 -0.87477,-0.0202 -1.3746,-0.0318 -0.12496,-0.003 -0.41353,0.0615 -0.49986,-0.0115 -0.0863,-0.073 -0.24529,-0.20674 -0.49522,-0.21252 l -0.7498,-0.0173 c -0.12497,-0.003 -0.63765,-0.0227 -1.1224,-0.12597 -0.27073,-0.0583 -0.87246,-0.1202 -1.37,-0.23274 -0.49756,-0.11154 -0.55488,-0.0548 -0.87012,-0.22116 -0.2352,-0.12347 -0.24298,-0.30669 -0.36564,-0.40955 -0.12263,-0.10388 -0.12032,-0.20386 -0.11798,-0.30481 0.002,-0.1 0.12727,-0.0971 0.25224,-0.0942 0.12497,0.003 0.25227,-0.0952 0.37723,-0.0923 l 0.3749,0.009 c 0.12497,0.003 0.25279,0.0989 0.49522,0.21249 0.63233,0.29667 1.2274,0.64554 1.4834,0.73747 0.7242,0.25979 1.1397,0.50047 1.4834,0.73748 0.40366,0.27939 0.44242,0.42033 0.48827,0.5134 0.0649,0.13355 0.3541,0.25926 0.74282,0.31925 0.24621,0.0377 0.8766,0.0713 1.4973,0.13464 0.63265,0.0656 1.5008,0.19773 1.7449,0.24138 0.65847,0.11727 1.3191,0.52964 1.8606,0.64616 0.36331,0.0774 0.49756,0.11154 0.62253,0.11443 0.12496,0.003 0.20858,0.15086 0.37025,0.20963 0.11409,0.0407 0.24762,0.10575 0.49756,0.11153 0.49986,0.0115 0.83339,0.1663 0.99508,0.22407 0.34326,0.12296 0.62484,0.0145 0.99974,0.0231 l 0.3749,0.009 c 0.12496,0.003 0.31953,0.0244 0.2476,0.10673 -0.38723,0.43819 -1.2575,0.48407 -2.1407,0.6537 -1.0007,0.19095 -1.765,0.0672 -2.254,0.14797 -0.54625,0.0914 -0.59254,0.23338 -0.75678,0.28459 -0.11584,0.0353 -0.14449,0.0197 -0.37721,0.0913 -0.16419,0.0502 -0.26051,0.14902 -0.50451,0.18938 -0.27313,0.0457 -0.50451,0.18938 -0.62948,0.18649 -0.12497,-0.003 -0.12728,0.0971 -0.002,0.1 0.12497,0.003 0.39398,0.17917 0.61788,0.31537 0.14102,0.0873 0.22689,0.22429 0.36792,0.31058 0.22391,0.13622 0.39938,0.16128 0.7498,0.0173 0.70993,-0.29165 1.2113,-0.73621 1.6547,-1.2681 0.30967,-0.37093 0.56195,-0.59715 0.51611,-0.69126 -0.0649,-0.13251 -0.37258,-0.10864 -0.62252,-0.11441 -0.49986,-0.0116 -1.0628,-0.0216 -1.6315,0.26337 -0.4483,0.22468 -0.63877,0.58839 -0.64108,0.68837 -0.005,0.20093 0.009,0.35927 0.48827,0.5134 0.52025,0.16807 0.86781,0.32114 1.3677,0.33269 0.24993,0.006 0.56291,0.054 0.75442,-0.1826 0.21421,-0.26612 0.25965,-0.84722 0.0255,-1.1047 -0.26727,-0.29425 -0.66977,-0.32055 -1.1224,-0.12598 -0.15554,0.0654 -0.54713,0.47549 -0.77066,0.88545 -0.15776,0.29044 -0.35252,0.62401 -0.26618,0.69703 0.0863,0.073 0.24457,0.0217 0.74747,0.11829 0.74093,0.14115 1.2474,0.12886 1.8722,0.14331 0.12497,0.003 0.25458,-0.19516 0.25689,-0.29515 0.002,-0.10098 -0.14655,-0.15042 -0.49986,-0.0115 -0.55924,0.22014 -0.93881,0.6735 -1.2682,0.77391 -0.11586,0.0363 0.11762,0.14775 0.75676,-0.28361 0.34345,-0.23211 0.38185,-0.29225 0.13192,-0.29803 -0.12497,-0.003 -1.0067,0.27781 -1.8907,0.65949 -0.88404,0.38067 -1.6997,0.44485 -1.6408,0.66526 0.0267,0.0976 0.14371,-0.0727 0.63181,-0.28748 0.39408,-0.17194 0.697,-0.46803 0.76604,-0.68548 0.0927,-0.29093 0.12417,-0.48127 -0.11105,-0.60472 -0.2105,-0.11091 -0.40123,-0.12429 -0.7498,-0.0173 -0.1642,0.0502 -0.20724,0.39733 -0.38419,0.39324 -0.17696,-0.004 -0.29739,-0.59205 -0.35632,-0.81247 -0.0267,-0.0986 -0.14431,-0.11836 -0.24994,-0.006 -0.33534,0.35734 -0.58131,0.87282 -0.65036,1.0903 -0.0313,0.0973 -0.0544,-0.11328 0.1389,-0.59995 0.20392,-0.51342 0.40274,-1.196 0.4097,-1.4969 0.002,-0.1 -0.29457,-0.0648 -0.773,0.9864 -0.21816,0.48011 -0.23407,0.95286 -0.39579,0.89508 -0.22916,-0.0823 0.009,-0.40187 0.0162,-0.70281 l 0.0232,-1.0037 c 0.005,-0.20094 -0.01,-0.10325 -0.13192,0.29805 -0.15152,0.49663 -0.32477,0.76568 -0.39579,0.89508 -0.0501,0.0919 0.002,-0.10098 0.0116,-0.50187 l 0.0302,-1.3056 0.005,-0.20094 c -0.005,0.20094 -0.13659,0.49997 -0.27083,0.89797 -0.13425,0.39902 -0.24151,0.49556 -0.25922,0.39613 -0.0557,-0.31537 -0.10641,-0.80569 -0.34705,-1.2134 -0.12033,-0.20385 -0.11568,-0.40479 -0.24065,-0.40767 -0.12497,-0.003 -0.22387,0.20887 -0.5138,0.59128 -0.23317,0.30768 -0.50913,0.38934 -0.88403,0.38067 -0.24993,-0.006 -0.43007,-0.30503 -0.479,-0.91433 -0.0404,-0.50205 0.0162,-0.70281 0.0209,-0.90375 l -0.005,0.20094 c -0.0116,0.50187 -0.2708,0.897 -0.0209,0.90278 0.24993,0.006 0.0298,-0.90156 0.15976,-1.5027 0.1512,-0.69869 0.65502,-1.2912 0.40739,-1.397 -0.24762,-0.10576 -0.29646,1.0984 -0.65036,1.0903 -0.17696,-0.004 -0.17087,-0.70011 -0.22209,-1.2104 -0.0397,-0.40102 -0.0696,-0.75181 -0.23136,-0.80959 -0.11408,-0.0406 -0.18356,0.0658 -0.25457,0.19519 -0.10028,0.18371 0.0274,0.45675 -0.13426,0.39899 -0.11406,-0.0417 0.0116,-0.50185 0.0186,-0.80378 0.0116,-0.50187 0.27082,-0.89797 0.0209,-0.90375 -0.12497,-0.003 -0.16961,0.32716 -0.25922,0.3961 -0.0896,0.069 -0.24763,-0.10575 -0.23834,-0.50762 0.0116,-0.50188 0.15395,-0.8617 -0.0994,-1.1076 -0.17905,-0.17319 -0.37259,-0.10865 -0.49987,-0.0115 -0.1273,0.0981 -0.14273,-0.0563 -0.24993,-0.006 -0.24065,0.11248 -0.49638,0.48668 -0.77533,1.0874 -0.0432,0.094 -0.0411,0.0911 -0.12033,-0.20386 -0.0589,-0.21941 -0.10303,-0.30245 -0.12032,-0.20382 -0.0725,0.40944 -0.22971,0.80691 -0.1505,1.1018 0.0589,0.22041 0.53323,0.12634 0.75676,-0.28359 0.31649,-0.57985 0.56172,-1.0633 0.64805,-0.99028 0.0863,0.073 -0.009,0.40187 -0.0116,0.50285 -0.002,0.1 0.12034,0.20285 0.23602,0.60761 0.11568,0.40479 -0.0506,0.84906 0.34937,1.1134 0.0975,0.0643 0.10882,-0.25054 0.37954,-0.19227 0.12145,0.0258 0.0844,0.41704 0.35635,0.81143 0.21868,0.31914 0.32914,0.94988 1.3468,1.2374 0.35481,0.0992 0.78843,-0.0528 0.87477,0.0202 0.0863,0.073 0.0335,0.28283 0.23602,0.6076 0.30185,0.48611 0.48826,1.0336 0.72891,0.92108 0.1072,-0.0505 0.0448,-0.42305 -0.35634,-0.81146 -0.33947,-0.32992 -0.63057,-0.41568 -0.61786,-0.31636 0.0535,0.41236 0.73181,0.88217 1.8443,1.349 1.268,0.53243 1.9372,0.48789 2.1175,0.35002 0.26985,-0.20683 -0.60394,-0.91822 -1.0968,-1.2307 l -0.37259,-0.10864 -0.12497,-0.003"
     inkscape:connector-curvature="0"
     style="fill:none;stroke:#000000;stroke-width:4;stroke-linejoin:round;stroke-dasharray:none" />
</svg>
