<?xml version="1.0" encoding="utf8" standalone="no"?>
<svg viewBox="0 0 268.95636 504.60901" xmlns="http://www.w3.org/2000/svg">
<g transform="translate(-216.72685,-178.058)">
<path d="m441.29462,560.70587c.01482,49.72803-40.29355,90.04842-90.02158,90.04842s-90.0364-40.32039-90.02158-90.04842c-.01482-49.72803 40.29355-90.04842 90.02158-90.04842s90.0364,40.32039 90.02158,90.04842z" fill="#fc0" stroke="#000" stroke-linecap="round" stroke-linejoin="round" stroke-width="3.28736" transform="matrix(1.21678,0,0,1.21678,-76.1501,-121.55162)"/>
<path d="m93.33809,349.0455a18.03122,15.55635 0 1,1 -36.06245,0 18.03122,15.55635 0 1,1 36.06245,0z" fill="#784421" transform="matrix(.42473,-.24473,.4879,.84676,78.43364,337.30162)"/>
<path d="m454.1875,523.125c.07679,1.68161.125,3.39329.125,5.09375 0,60.46428-49.06696,109.53125-109.53125,109.53125-47.26217,0-87.5912-29.99927-102.9375-71.96875 2.65351,58.11219 50.67363,104.46875 109.4375,104.46875 60.46429,0 109.53125-49.06697 109.53125-109.53125 0-13.20218-2.33815-25.87003-6.625-37.59375z" fill-opacity=".31373"/>
<path d="m359.45331,671.27549c0,9.09078 14.66533,9.38135 32.73511,9.38135s32.73512.69349 32.73512-9.38135c0-17.71594-14.66534-32.0941-32.73512-32.0941s-32.73511,14.37816-32.73511,32.0941z" fill="#784421" stroke="#000" stroke-linecap="round" stroke-linejoin="round" stroke-width="4"/>
<path d="m404.77885,680.0559c0-16.36756-9.44283-26.43991-9.44283-26.43991s3.77713,13.84948 3.14761,26.43991h6.29522z" fill-opacity=".31373" fill-rule="evenodd" stroke="#000" stroke-linejoin="round" stroke-width="4"/>
<path d="m298.73628,487.34467c24.5-37.90099 20-128.73267 20-128.73267l60-3.26733c0,0-1.5,91.48515 23.5,130.0396" fill="#fc0" fill-rule="evenodd" stroke="#000" stroke-linecap="round" stroke-linejoin="round" stroke-width="4"/>
<path d="m93.33809,349.0455a18.03122,15.55635 0 1,1 -36.06245,0 18.03122,15.55635 0 1,1 36.06245,0z" fill="#784421" transform="matrix(.58348,0,0,.95455,319.84184,61.24961)"/>
<path d="m162,177.28125-17.15625.9375-42.84375,2.34375c0,0 .24111,4.85453.3125,12.5625 13.15896,8.25632 26.41989,13.0625 35.71875,13.0625 3.3283,0 7.10526-.5723 11.15625-1.65625 6.18631,33.34103 17.66752,80.34255 36.03125,102.5l-1,.34375 1.28125-.03125c-17.207-26.53627-21.83352-78.1521-23.0625-107.75-.13915-3.3512-.24539-6.4361-.3125-9.15625-.05099-2.17381-.07513-4.09727-.09375-5.78125-.01712-1.35694-.02716-2.37691-.03125-3.375-.0047-1.55014-.00601-1.74795 0-2.40625 .00247-1.04455 0-1.59375 0-1.59375z" fill-opacity=".31373" fill-rule="evenodd" transform="translate(216.72685,178.058)"/>
<path d="m351.26753,208.56586c-22.78984,0-41.27805,6.96787-54.875,18.59375-.57066-.42629-1.34339-.8054-2.34375-1.25-55.50788-10.60661-74.60539,25.09315-75.3125,30.75s38.51535,14.48465 59.375-6.375l.71875-.71875c-6.17132,12.02374-9.40625,25.96974-9.40625,40.84375 0,45.17448 56.1255,81.84375 81.84375,81.84375 26.71661,0 81.84375-36.66927 81.84375-81.84375 0-15.04123-3.46305-29.13504-9.9375-41.25l1.125,1.125c20.85965,20.85965 60.08211,12.03185 59.375,6.375s-19.77337-41.35661-75.28125-30.75c-1.17282.52125-2.0848.95218-2.65625,1.46875-13.73546-11.74564-32.20698-18.8125-54.46875-18.8125z" fill="#fc0" stroke="#000" stroke-linecap="round" stroke-linejoin="round" stroke-width="4"/>
<path d="m347.6435,278.41325c.00373,12.51895-10.14383,22.66953-22.66277,22.66953s-22.66651-10.15058-22.66278-22.66953 10.14383-22.66952 22.66278-22.66952 22.6665,10.15058 22.66277,22.66952z" fill="#fff" stroke="#000" stroke-linecap="round" stroke-linejoin="round" stroke-width="4"/>
<path d="m400.3757,278.41325c.00373,12.51895-10.14383,22.66953-22.66277,22.66953s-22.66651-10.15058-22.66278-22.66953 10.14383-22.66952 22.66278-22.66952 22.6665,10.15058 22.66277,22.66952z" fill="#fff" stroke="#000" stroke-linecap="round" stroke-linejoin="round" stroke-width="4"/>
<path d="m380.23101,282.41325c.00125,4.17298-3.38127,7.55651-7.55425,7.55651s-7.5555-3.38353-7.55425-7.55651 3.38127-7.5565 7.55425-7.5565 7.5555,3.38352 7.55425,7.5565z"/>
<path d="m338.20067,282.41325c.00125,4.17298-3.38127,7.55651-7.55425,7.55651s-7.5555-3.38353-7.55425-7.55651 3.38127-7.5565 7.55425-7.5565 7.5555,3.38352 7.55425,7.5565z"/>
<path d="m425.6875,251.49017c1.75462,7.63243 2.625,15.72251 2.625,24.125 0,45.17449-55.12714,81.84375-81.84375,81.84375-20.70581,2e-005-61.09673-23.75565-76.0625-56.59375 7.61581,40.24628 57.1719,71.37501 80.875,71.375 26.71661,0 81.84375-36.6693 81.84375-81.84375 0-14.08051-2.41267-27.33197-7.4375-38.90625z" fill-opacity=".31373"/>
<path d="m344.4555,671.27549c0,9.09078-14.66533,9.38135-32.73511,9.38135s-32.73512.69349-32.73512-9.38135c0-17.71594 14.66534-32.0941 32.73512-32.0941s32.73511,14.37816 32.73511,32.0941z" fill="#784421" stroke="#000" stroke-linecap="round" stroke-linejoin="round" stroke-width="4"/>
<path d="m299.12996,680.0559c0-16.36756 9.44283-26.43991 9.44283-26.43991s-3.77713,13.84948-3.14761,26.43991h-6.29522z" fill-opacity=".31373" fill-rule="evenodd" stroke="#000" stroke-linejoin="round" stroke-width="4"/>
<path d="m367.86847,343.04459c-2.29272,3.97309-6.50025,5.8386-9.39677,4.16629s-3.38472-6.2489-1.09029-10.22099 6.50026-5.83861 9.39679-4.1663 3.38471,6.2489 1.09027,10.221z"/>
<path d="m335.13142,343.04459c2.29272,3.97309 6.50025,5.8386 9.39677,4.16629s3.38472-6.2489 1.09029-10.22099-6.50026-5.83861-9.39679-4.1663-3.38471,6.2489-1.09027,10.221z"/>
<path d="m317.51803,224.48441c5.65685-10.25305-6.01041-22.62742-6.01041-22.62742l17.32411-4.24264c0,0-2.47487,15.55634 6.71752,21.2132" fill="#fc0" fill-rule="evenodd" stroke="#000" stroke-linecap="round" stroke-width="4"/>
<path d="m82.37794-127.96103a15.37957,15.37957 0 1,1 -30.75915,0 15.37957,15.37957 0 1,1 30.75915,0z" fill="#784421" stroke="#000" stroke-linecap="round" stroke-linejoin="round" stroke-width="4" transform="translate(251.73628,323.3986)"/>
<path d="m418.58739,232.50248c35.78161-4.56749 52.52347,16.96496 53.83655,20.22745s-35.12506,10.11372-53.83655-20.22745z" fill="#d4aa00" fill-rule="evenodd" stroke="#000" stroke-linejoin="round" stroke-width="4"/>
<path d="m384.69317,224.48441c-5.65685-10.25305 6.01041-22.62742 6.01041-22.62742l-17.32411-4.24264c0,0 2.47487,15.55634-6.71752,21.2132" fill="#fc0" fill-rule="evenodd" stroke="#000" stroke-linecap="round" stroke-width="4"/>
<path d="m82.37794-127.96103a15.37957,15.37957 0 1,1 -30.75915,0 15.37957,15.37957 0 1,1 30.75915,0z" fill="#784421" stroke="#000" stroke-linecap="round" stroke-linejoin="round" stroke-width="4" transform="translate(315.73628,323.3986)"/>
<path d="m93.33809,349.0455a18.03122,15.55635 0 1,1 -36.06245,0 18.03122,15.55635 0 1,1 36.06245,0z" fill="#784421" transform="matrix(.72367,.17743,-.32471,1.32441,330.7245,54.99796)"/>
<path d="m93.33809,349.0455a18.03122,15.55635 0 1,1 -36.06245,0 18.03122,15.55635 0 1,1 36.06245,0z" fill="#784421" transform="matrix(1.35294,0,0,1.65909,231.86725,-11.33608)"/>
<path d="m93.33809,349.0455a18.03122,15.55635 0 1,1 -36.06245,0 18.03122,15.55635 0 1,1 36.06245,0z" fill="#784421" transform="matrix(.44644,-.14881,.30185,.90556,288.46403,217.27829)"/>
<path d="m93.33809,349.0455a18.03122,15.55635 0 1,1 -36.06245,0 18.03122,15.55635 0 1,1 36.06245,0z" fill="#784421" transform="matrix(.66667,0,0,.95455,359.07713,257.24961)"/>
<path d="m93.33809,349.0455a18.03122,15.55635 0 1,1 -36.06245,0 18.03122,15.55635 0 1,1 36.06245,0z" fill="#784421" transform="matrix(1.05882,0,0,1.36364,296.79628,35.57602)"/>
<path d="m93.33809,349.0455a18.03122,15.55635 0 1,1 -36.06245,0 18.03122,15.55635 0 1,1 36.06245,0z" fill="#784421" transform="matrix(.72549,0,0,1.36364,279.11862,-35.44837)"/>
<path d="m283.45849,232.50248c-35.78161-4.56749-52.52347,16.96496-53.83655,20.22745s35.12506,10.11372 53.83655-20.22745z" fill="#d4aa00" fill-rule="evenodd" stroke="#000" stroke-linejoin="round" stroke-width="4"/>
</g>
</svg>
