<?xml version="1.0" encoding="utf8" standalone="no"?>
<svg height="1057.5636" viewBox="0 0 1057.5636 446.09448" preserveAspectRatio="none" width="1057.5636" xmlns="http://www.w3.org/2000/svg" xmlns:xlink="http://www.w3.org/1999/xlink">
<defs>
<linearGradient id="linearGradient4387">
<stop offset="0" stop-color="#eeeeec"/>
<stop offset="1" stop-color="#555753"/>
</linearGradient>
<linearGradient id="linearGradient60166">
<stop offset="0" stop-color="#6c981a"/>
<stop offset="1" stop-color="#b8cf22"/>
</linearGradient>
<linearGradient gradientUnits="userSpaceOnUse" id="linearGradient4345" x1="489.99415" x2="521.11402" y1="159.0361" y2="155.32494">
<stop offset="0" stop-color="#325804"/>
<stop offset="1" stop-color="#325804" stop-opacity="0"/>
</linearGradient>
<linearGradient gradientUnits="userSpaceOnUse" id="linearGradient3359" x1="95.08824" x2="131.08824" y1="155.07019" y2="21.68848">
<stop offset="0" stop-color="#c4a000"/>
<stop offset="1" stop-color="#c4a000" stop-opacity="0"/>
</linearGradient>
<linearGradient gradientUnits="userSpaceOnUse" id="linearGradient3491" x1="941.09038" x2="998.27147" y1="174.09448" y2="203.59448">
<stop offset="0" stop-color="#8f5902"/>
<stop offset="1" stop-color="#c17d11"/>
</linearGradient>
<linearGradient gradientUnits="userSpaceOnUse" id="linearGradient3560" x1="356.61291" x2="860.07292" y1="372.67206" y2="201.83545">
<stop offset="0" stop-color="#d2e748"/>
<stop offset="1" stop-color="#b4cb1b"/>
</linearGradient>
<linearGradient gradientUnits="userSpaceOnUse" id="linearGradient3564" x1="1012.37837" x2="911.92454" y1="143.63811" y2="264.40826">
<stop offset="0" stop-color="#618817"/>
<stop offset="1" stop-color="#82b71f"/>
</linearGradient>
<linearGradient gradientUnits="userSpaceOnUse" id="linearGradient3637" x2="0" y1="76.21878" y2="118.43759">
<stop offset="0" stop-color="#fff"/>
<stop offset="1" stop-color="#d3d7cf" stop-opacity="0"/>
</linearGradient>
<linearGradient gradientUnits="userSpaceOnUse" id="linearGradient3479" x1="871.86405" x2="919.24044" xlink:href="#linearGradient4387" y1="159.74644" y2="163.15332"/>
<linearGradient gradientUnits="userSpaceOnUse" id="linearGradient3483" x1="846.56957" x2="891.31957" xlink:href="#linearGradient4387" y1="155.09448" y2="158.3125"/>
<linearGradient gradientTransform="matrix(2.01,0,0,1,-33.30502,-106.93362)" gradientUnits="userSpaceOnUse" id="linearGradient3593" x1="37" x2="256.67859" xlink:href="#linearGradient60166" y1="266.36218" y2="322.81985"/>
<linearGradient gradientUnits="userSpaceOnUse" id="linearGradient3633" x1="644.63339" x2="441.07906" xlink:href="#linearGradient60166"/>
</defs>
<path d="m445.0789,34c-10.76613,0-19.77676,7.51213-22.08862,17.57669-7.85624.10673-14.59345,4.86133-17.60147,11.62689l-.12396-.0496c-2.43007-.88978-5.046-1.38829-7.78431-1.38829-12.51802,0-22.6836,10.16558-22.6836,22.6836s10.16558,22.6588 22.6836,22.6588c.39118,0 .77884-.006 1.16516-.0247 2.17996-.1105 4.2725-.53091 6.24729-1.21475 2.72078,7.33907 9.78694,12.56894 18.0725,12.56894 6.41427,0 12.09166-3.13696 15.59342-7.95785 5.317,4.60575 12.24605,7.38766 19.83265,7.38766 10.48903,0 19.74457-5.31566 25.18747-13.41183 4.09977,4.08738 9.76827,6.61915 16.01487,6.61915 9.47101,0 17.55919-5.80701 20.94823-14.05639 3.56429,3.7756 8.62789,6.12333 14.22993,6.12333 6.00438,0 11.38756-2.70612 14.97365-6.96622 3.87074,3.08066 8.77448,4.93337 14.10597,4.93337 .92671,0 1.82942-.0654 2.72699-.17353 3.58438,4.13055 8.87704,6.7431 14.77533,6.7431 9.55078,0 17.48008-6.86135 19.18809-15.91571 9.38585-.6887 16.78338-8.5356 16.78338-18.09729 0-10.01442-8.10767-18.12208-18.12209-18.12208-7.26359,0-13.51716,4.26939-16.41151,10.43693-4.05251-6.15556-11.01934-10.21382-18.94019-10.21382-6.33464,0-12.07553,2.60327-16.1884,6.79269-2.23741-10.16535-11.30059-17.77502-22.13819-17.77502-6.09762,0-11.61865,2.40497-15.69259,6.32166-3.60117-7.75248-11.4407-13.13913-20.55158-13.13913-7.37592,0-13.93344,3.54378-18.07251,8.99907-1.38906-.31315-2.82992-.49582-4.3136-.49582-.5148,0-1.03225.0353-1.53703.0743-3.71933-7.43344-11.4013-12.54415-20.27888-12.54415z" fill="url(#linearGradient3637)"/>
<path d="m2.04196,34h1053.41064v387.14286h-1053.41064v-387.14286z" fill="#cce6f3"/>
<path d="m283.74467,198.53571c163.07725-57.17937 329.69502-83.5648 452.00508-68.63954 106.91893-38.68871 180.85833-11.93189 180.85833-11.93189l-2.01,139.85715-647.5077,1 16.65429-60.28572z" fill="url(#linearGradient3633)"/>
<g fill="#c4a000" transform="matrix(-.51331,0,0,.51331,1054.1513,72.07147)">
<path d="m126.79011,56.57019c-17.5,5-11,96-11,96l13-2c0,0 3-89 20.5-93" fill="url(#linearGradient3359)" stroke="#edd400" stroke-width="5"/>
<path d="m125.36255,55.94546c-16.75785,7.10102.81359,96.62473.81359,96.62473l12.65817-3.57361c0,0-7.89823-88.69959 8.98182-94.8081" fill="url(#linearGradient3359)" stroke="#edd400" stroke-width="5"/>
<path d="m134.81084,60.94546c-16.75785,7.10102-4.18641,91.62473-4.18641,91.62473l12.65817-3.57361c0,0-.39823-95.69959 16.48182-101.8081" fill="url(#linearGradient3359)" stroke="#edd400" stroke-width="5"/>
<path d="m120.24725,44.94546c-16.75785,7.10102-11.18641,107.62473-11.18641,107.62473l12.65817-3.57361c0,0-4.89823-75.19959 14.48182-78.8081" fill="url(#linearGradient3359)" stroke="#edd400" stroke-width="5"/>
<path d="m80.43992,60.94546c-16.75785,7.10102-4.18641,91.62473-4.18641,91.62473l12.65817-3.57361c0,0-1.89823-72.19959 21.48182-72.8081" fill="url(#linearGradient3359)" stroke="#edd400" stroke-width="5"/>
<path d="m20.49144,56.57019c-17.5,5-11,96-11,96l13-2c0,0 3-89 20.50001-93" fill="url(#linearGradient3359)" stroke="#edd400" stroke-width="5"/>
<path d="m52.08051,55.94546c-16.75785,7.10102.81359,96.62473.81359,96.62473l12.65817-3.57361c0,0-7.89823-88.69959 8.98182-94.8081" fill="url(#linearGradient3359)" stroke="#edd400" stroke-width="5"/>
<path d="m166.66928,60.94546c-16.75785,7.10102-4.18641,91.62473-4.18641,91.62473l12.65817-3.57361c0,0-.39823-95.69959 16.48182-101.8081" fill="url(#linearGradient3359)" stroke="#edd400" stroke-width="5"/>
<path d="m239.47371,44.94546c-16.75785,7.10102-11.18641,107.62473-11.18641,107.62473l12.65817-3.57361c0,0-4.89823-75.19959 14.48182-78.8081" fill="url(#linearGradient3359)" stroke="#edd400" stroke-width="5"/>
<path d="m101.03272,60.94546c-16.75785,7.10102-4.18641,91.62473-4.18641,91.62473l12.65817-3.57361c0,0-1.89823-72.19959 21.48182-72.8081" fill="url(#linearGradient3359)" stroke="#edd400" stroke-width="5"/>
<path d="m8.0333,56.57019c-17.5,5-11,96-11,96l13-2c0,0 3-89 20.50001-93" fill="url(#linearGradient3359)" stroke="#edd400" stroke-width="5"/>
<path d="m127.94671,55.94546c-16.75785,7.10102.81359,96.62473.81359,96.62473l12.65817-3.57361c0,0-7.89823-88.69959 8.98182-94.8081" fill="url(#linearGradient3359)" stroke="#edd400" stroke-width="5"/>
<path d="m176.11686,57.94546c-16.75785,7.10102-4.18641,91.62473-4.18641,91.62473l12.65817-3.57361c0,0-.39823-95.69959 16.48182-101.8081" fill="url(#linearGradient3359)" stroke="#edd400" stroke-width="5"/>
<path d="m186.4531,44.94546c-16.75785,7.10102-11.18641,107.62473-11.18641,107.62473l12.65817-3.57361c0,0-4.89823-75.19959 14.48182-78.8081" fill="url(#linearGradient3359)" stroke="#edd400" stroke-width="5"/>
<path d="m236.37048,60.94546c-16.75785,7.10102-4.18641,91.62473-4.18641,91.62473l12.65817-3.57361c0,0-1.89823-72.19959 21.48182-72.8081" fill="url(#linearGradient3359)" stroke="#edd400" stroke-width="5"/>
<path d="m156.77675,56.57019c-17.5,5-11,96-11,96l13-2c0,0 3-89 20.5-93" fill="url(#linearGradient3359)" stroke="#edd400" stroke-width="5"/>
<path d="m66.32946,26.78794c-16.39886,9.22045.79616,125.46417.79616,125.46417l12.387-4.64022c0,0-7.72903-115.17362 8.78941-123.10533" fill="url(#linearGradient3359)" stroke="#edd400" stroke-width="5.63616"/>
<path d="m192.35245,60.94546c-16.75785,7.10102-4.18641,91.62473-4.18641,91.62473l12.65817-3.57361c0,0-.39823-95.69959 16.48182-101.8081" fill="url(#linearGradient3359)" stroke="#edd400" stroke-width="5"/>
<path d="m42.7481,44.94546c-16.75785,7.10102-11.18641,107.62473-11.18641,107.62473l12.65817-3.57361c0,0-4.89823-75.19959 14.48182-78.8081" fill="url(#linearGradient3359)" stroke="#edd400" stroke-width="5"/>
<path d="m15.92792,78.7075c-16.9641,5.74288-4.23793,74.10065-4.23793,74.10065l12.81398-2.89013c0,0-1.9216-58.39074 21.74622-58.88287" fill="url(#linearGradient3359)" stroke="#edd400" stroke-width="4.52409"/>
<path d="m205.31359,36.71901c-17.34981,5.66158-10.9056,108.70236-10.9056,108.70236l12.88844-2.26463c0,0 2.97425-100.77615 20.32406-105.30542" fill="url(#linearGradient3359)" stroke="#edd400" stroke-width="5.29764"/>
<path d="m142.24519,55.94546c-16.75785,7.10102.81359,96.62473.81359,96.62473l12.65817-3.57361c0,0-7.89823-88.69959 8.98182-94.8081" fill="url(#linearGradient3359)" stroke="#edd400" stroke-width="5"/>
<path d="m149.24666,42.84617c-16.54326,8.48703-4.1328,109.50846-4.1328,109.50846l12.49608-4.27112c0,0-.39313-114.37868 16.27076-121.67947" fill="url(#linearGradient3359)" stroke="#edd400" stroke-width="5.43111"/>
<path d="m217.31617,44.94546c-16.75785,7.10102-11.18641,107.62473-11.18641,107.62473l12.65817-3.57361c0,0-4.89823-75.19959 14.48182-78.8081" fill="url(#linearGradient3359)" stroke="#edd400" stroke-width="5"/>
<path d="m100.3825,60.94546c-16.75785,7.10102-4.18641,91.62473-4.18641,91.62473l12.65817-3.57361c0,0-1.89823-72.19959 21.48182-72.8081" fill="url(#linearGradient3359)" stroke="#edd400" stroke-width="5"/>
</g>
<path d="m635.95379,230.53571c-163.07725-57.17937-329.69502-83.5648-452.00508-68.63954-106.91893-38.68871-180.85833-11.93189-180.85833-11.93189l2.01,139.85715 647.5077,1-16.65429-60.28572z" fill="url(#linearGradient3593)"/>
<g fill="#c4a000" transform="matrix(-.47513,.19428,.19428,.47513,875.97473,73.97819)">
<path d="m126.79011,56.57019c-17.5,5-11,96-11,96l13-2c0,0 3-89 20.5-93" fill="url(#linearGradient3359)" stroke="#edd400" stroke-width="5"/>
<path d="m125.36255,55.94546c-16.75785,7.10102.81359,96.62473.81359,96.62473l12.65817-3.57361c0,0-7.89823-88.69959 8.98182-94.8081" fill="url(#linearGradient3359)" stroke="#edd400" stroke-width="5"/>
<path d="m134.81084,60.94546c-16.75785,7.10102-4.18641,91.62473-4.18641,91.62473l12.65817-3.57361c0,0-.39823-95.69959 16.48182-101.8081" fill="url(#linearGradient3359)" stroke="#edd400" stroke-width="5"/>
<path d="m120.24725,44.94546c-16.75785,7.10102-11.18641,107.62473-11.18641,107.62473l12.65817-3.57361c0,0-4.89823-75.19959 14.48182-78.8081" fill="url(#linearGradient3359)" stroke="#edd400" stroke-width="5"/>
<path d="m80.43992,60.94546c-16.75785,7.10102-4.18641,91.62473-4.18641,91.62473l12.65817-3.57361c0,0-1.89823-72.19959 21.48182-72.8081" fill="url(#linearGradient3359)" stroke="#edd400" stroke-width="5"/>
<path d="m20.49144,56.57019c-17.5,5-11,96-11,96l13-2c0,0 3-89 20.50001-93" fill="url(#linearGradient3359)" stroke="#edd400" stroke-width="5"/>
<path d="m52.08051,55.94546c-16.75785,7.10102.81359,96.62473.81359,96.62473l12.65817-3.57361c0,0-7.89823-88.69959 8.98182-94.8081" fill="url(#linearGradient3359)" stroke="#edd400" stroke-width="5"/>
<path d="m166.66928,60.94546c-16.75785,7.10102-4.18641,91.62473-4.18641,91.62473l12.65817-3.57361c0,0-.39823-95.69959 16.48182-101.8081" fill="url(#linearGradient3359)" stroke="#edd400" stroke-width="5"/>
<path d="m239.47371,44.94546c-16.75785,7.10102-11.18641,107.62473-11.18641,107.62473l12.65817-3.57361c0,0-4.89823-75.19959 14.48182-78.8081" fill="url(#linearGradient3359)" stroke="#edd400" stroke-width="5"/>
<path d="m101.03272,60.94546c-16.75785,7.10102-4.18641,91.62473-4.18641,91.62473l12.65817-3.57361c0,0-1.89823-72.19959 21.48182-72.8081" fill="url(#linearGradient3359)" stroke="#edd400" stroke-width="5"/>
<path d="m8.0333,56.57019c-17.5,5-11,96-11,96l13-2c0,0 3-89 20.50001-93" fill="url(#linearGradient3359)" stroke="#edd400" stroke-width="5"/>
<path d="m127.94671,55.94546c-16.75785,7.10102.81359,96.62473.81359,96.62473l12.65817-3.57361c0,0-7.89823-88.69959 8.98182-94.8081" fill="url(#linearGradient3359)" stroke="#edd400" stroke-width="5"/>
<path d="m176.11686,57.94546c-16.75785,7.10102-4.18641,91.62473-4.18641,91.62473l12.65817-3.57361c0,0-.39823-95.69959 16.48182-101.8081" fill="url(#linearGradient3359)" stroke="#edd400" stroke-width="5"/>
<path d="m186.4531,44.94546c-16.75785,7.10102-11.18641,107.62473-11.18641,107.62473l12.65817-3.57361c0,0-4.89823-75.19959 14.48182-78.8081" fill="url(#linearGradient3359)" stroke="#edd400" stroke-width="5"/>
<path d="m236.37048,60.94546c-16.75785,7.10102-4.18641,91.62473-4.18641,91.62473l12.65817-3.57361c0,0-1.89823-72.19959 21.48182-72.8081" fill="url(#linearGradient3359)" stroke="#edd400" stroke-width="5"/>
<path d="m156.77675,56.57019c-17.5,5-11,96-11,96l13-2c0,0 3-89 20.5-93" fill="url(#linearGradient3359)" stroke="#edd400" stroke-width="5"/>
<path d="m66.32946,26.78794c-16.39886,9.22045.79616,125.46417.79616,125.46417l12.387-4.64022c0,0-7.72903-115.17362 8.78941-123.10533" fill="url(#linearGradient3359)" stroke="#edd400" stroke-width="5.63616"/>
<path d="m192.35245,60.94546c-16.75785,7.10102-4.18641,91.62473-4.18641,91.62473l12.65817-3.57361c0,0-.39823-95.69959 16.48182-101.8081" fill="url(#linearGradient3359)" stroke="#edd400" stroke-width="5"/>
<path d="m42.7481,44.94546c-16.75785,7.10102-11.18641,107.62473-11.18641,107.62473l12.65817-3.57361c0,0-4.89823-75.19959 14.48182-78.8081" fill="url(#linearGradient3359)" stroke="#edd400" stroke-width="5"/>
<path d="m15.92792,78.7075c-16.9641,5.74288-4.23793,74.10065-4.23793,74.10065l12.81398-2.89013c0,0-1.9216-58.39074 21.74622-58.88287" fill="url(#linearGradient3359)" stroke="#edd400" stroke-width="4.52409"/>
<path d="m205.31359,36.71901c-17.34981,5.66158-10.9056,108.70236-10.9056,108.70236l12.88844-2.26463c0,0 2.97425-100.77615 20.32406-105.30542" fill="url(#linearGradient3359)" stroke="#edd400" stroke-width="5.29764"/>
<path d="m142.24519,55.94546c-16.75785,7.10102.81359,96.62473.81359,96.62473l12.65817-3.57361c0,0-7.89823-88.69959 8.98182-94.8081" fill="url(#linearGradient3359)" stroke="#edd400" stroke-width="5"/>
<path d="m149.24666,42.84617c-16.54326,8.48703-4.1328,109.50846-4.1328,109.50846l12.49608-4.27112c0,0-.39313-114.37868 16.27076-121.67947" fill="url(#linearGradient3359)" stroke="#edd400" stroke-width="5.43111"/>
<path d="m217.31617,44.94546c-16.75785,7.10102-11.18641,107.62473-11.18641,107.62473l12.65817-3.57361c0,0-4.89823-75.19959 14.48182-78.8081" fill="url(#linearGradient3359)" stroke="#edd400" stroke-width="5"/>
<path d="m100.3825,60.94546c-16.75785,7.10102-4.18641,91.62473-4.18641,91.62473l12.65817-3.57361c0,0-1.89823-72.19959 21.48182-72.8081" fill="url(#linearGradient3359)" stroke="#edd400" stroke-width="5"/>
</g>
<path d="m746.12168,216.15069c145.22343-102.34795 309.33092-62.85233 309.33092-62.85233v266.99678l-313.48016-6.36396 4.14924-197.78049z" fill="url(#linearGradient3564)"/>
<path d="m327.07237,218.28571c441.42857-52.85714 728.38023,39.27854 728.38023,39.27854v164.28572l-726.95166-.70711-1.42857-202.85715z" fill="url(#linearGradient3560)"/>
<path d="m327.07237,218.28571c441.42857-52.85714 724.28573,38.57143 724.28573,38.57143-80.08704-16.71003-482.85716-90.71428-718.85716,40.28572l-5.42857-78.85715z" fill="#fce94f"/>
<path d="m339.07237,341.28571c354.42857-166.85714 703.28573-84.42857 703.28573-84.42857-84.08704-24.71003-462.85716-21.71428-706.85716,160.28572l3.57143-75.85715z" fill="#fce94f"/>
<path d="m416.07237,424.28571c398.42857-231.85714 639.38023-166.42857 639.38023-166.42857-125.08706-42.71003-435.95166,79.28572-543.95166,169.28572l-95.42857-2.85715z" fill="#fce94f"/>
<path d="m319.87422,208.65169c0,0-316.78384-8.6242-316.78384,34.87007v178.1909l608.06306,3.41422c0,0-164.7868-87.68125-291.27922-216.47519z" fill="#c17d11"/>
<path d="m229.09038,218.09448c40-26 69-5 69-5l261,213-84-2c0,0-207-198-246-206z" fill="#e9b96e"/>
<path d="m126.09038,226.09448c25-33 73-9 73-9l234,207-72-2c0,0-209-184-235-196z" fill="#e9b96e"/>
<path d="m25.09038,238.09448c43-30 69-15 69-15l223,201-84-2c0,0-182-172-208-184z" fill="#e9b96e"/>
<path d="m3.09038,324.09448v-53l186,157-84-2c0,0-102-88-102-102z" fill="#e9b96e"/>
<path d="m626.07237,424.28571c336.42861-193.85714 429.38023-166.42857 429.38023-166.42857-115.08706,17.28997-187.95166,71.28572-295.95166,161.28572l-133.42857,5.14285z" fill="#fce94f"/>
<path d="m858.09319,421.43647c134.42861-111.85714 197.35941-163.57933 197.35941-163.57933 0,13.28997-51.2445,57.62887-61.24455,165.62887l-136.11486-2.04954z" fill="#fce94f"/>
<path d="m980.16143,180.97316 30.92897,8.12132 44.3622,5v39l-56.49218-22.77817-50.87006-16.22183-7-5 2-15 37.07107,6.87868z" fill="url(#linearGradient3491)"/>
<path d="m898.09038,103.85792 89-1.76344 2,82-91-18.51613v-61.72043z" fill="#5e0000"/>
<path d="m836.09038,104.09448 89-2 2,93-91-21v-70z" fill="#c00"/>
<path d="m924.46538,101.96875 1.4375,92.28125 15.40625-2.625-.875-56.78125 38.96875-2.1875 1.03125,52.28125 8.875-1.5-1.625-81-31.60938-38.23438-31.60937,37.76563z" fill="#a40000"/>
<path d="m832.09038,111.59448 3-.5h85l35.5-46-94.5,7-29,39.5z" fill="#2e3436" stroke="#000"/>
<path d="m956.09038,66.09448 33,38.5-33-38.5-94.5,7 94.5-7z" fill="#2e3436" stroke="#000"/>
<path d="m861.25706,100.3125c-10.41166,0-18.84375,5.01606-18.84375,11.21875 0,.55996.0859,1.11826.21875,1.65625v68.46875c-.45014.97798-.71875,1.99939-.71875,3.0625 0,6.39795 8.72933,11.59375 19.46875,11.59375s19.4375-5.1958 19.4375-11.59375c0-1.06311-.2686-2.08452-.7187-3.0625v-69.75h-.031c.01-.12476.031-.24925.031-.375 0-6.20269-8.43214-11.21875-18.8438-11.21875z" fill="url(#linearGradient3483)"/>
<path d="m879.32316,106.9909c0,3.90112-7.96546,7.06359-17.79134,7.06359s-17.79133-3.16247-17.79133-7.06359 7.96545-7.06358 17.79133-7.06358 17.79134,3.16247 17.79134,7.06358z" fill="#eeeeec" opacity=".57959"/>
<path d="m887.4136,101.7493c-11.02272,0-19.94969,5.31046-19.94969,11.87718 0,.59283.0909,1.18389.23159,1.75346v72.4872c-.47656,1.03537-.76094,2.11673-.76094,3.24223 0,6.77345 9.24166,12.27419 20.61138,12.27419s20.57829-5.50074 20.57829-12.27419c0-1.1255-.28437-2.20686-.76088-3.24223v-73.84365h-.0328c.0106-.13208.0328-.26388.0328-.39701 0-6.56672-8.92703-11.87718-19.94975-11.87718z" fill="url(#linearGradient3479)"/>
<path d="m905.83471,109.52715c0,4.13003-8.43296,7.47807-18.83555,7.47807s-18.83555-3.34804-18.83555-7.47807 8.43297-7.47808 18.83555-7.47808 18.83555,3.34805 18.83555,7.47808z" fill="#eeeeec" opacity=".57959"/>
<path d="m3.09038,412.09448h1052.36222v34h-1052.36222z" fill="#2e3436"/>
<path d="m3.09038,0h1052.36222v34h-1052.36222z" fill="#2e3436"/>
<path d="m416.79558,17.6562c-13.57122,0-24.92955,9.4694-27.84375,22.15625-9.90317.13454-18.39574,6.12794-22.1875,14.65625l-.15625-.0625c-3.06322-1.1216-6.36072-1.75-9.8125-1.75-15.77956,0-28.59375,12.81419-28.59375,28.59375s12.81419,28.5625 28.59375,28.5625c.49311,0 .98177-.007 1.46875-.0312 2.74794-.13929 5.38568-.66923 7.875-1.53125 3.42968,9.25125 12.33691,15.84375 22.78125,15.84375 8.08549,0 15.24211-3.95429 19.65625-10.03125 6.70233,5.80577 15.43672,9.3125 25,9.3125 13.22192,0 24.88897-6.70065 31.75-16.90625 5.16796,5.15234 12.31337,8.34375 20.1875,8.34375 11.93867,0 22.1342-7.32001 26.40625-17.71875 4.49295,4.75933 10.87586,7.71875 17.9375,7.71875 7.56881,0 14.35456-3.41119 18.875-8.78125 4.87925,3.88332 11.06065,6.21875 17.78125,6.21875 1.16816,0 2.30606-.0825 3.4375-.21875 4.51828,5.20676 11.18993,8.5 18.625,8.5 12.03921,0 22.03447-8.64905 24.1875-20.0625 11.83131-.86814 21.15625-10.75954 21.15625-22.8125 0-12.62365-10.2201-22.84375-22.84375-22.84375-9.15611,0-17.03903,5.38178-20.6875,13.15625-5.10837-7.75938-13.8904-12.875-23.875-12.875-7.98512,0-15.22179,3.28154-20.40625,8.5625-2.82037-12.8139-14.24493-22.40625-27.90625-22.40625-7.68633,0-14.64586,3.03157-19.78125,7.96875-4.53945-9.77237-14.42155-16.5625-25.90625-16.5625-9.2977,0-17.56376,4.4671-22.78125,11.34375-1.75098-.39474-3.56726-.625-5.4375-.625-.64893,0-1.3012.0445-1.9375.0937-4.6884-9.37021-14.37188-15.8125-25.5625-15.8125z" fill="#fff"/>
<g transform="matrix(-1.44613,0,0,1.44613,806.74521,-119.98425)">
<path d="m404.12243,165.85323c-7.88471-1.80445-13.22039-8.8291-13.22663-16.58747-5.73572-1.39492-9.90201-5.99593-10.97104-11.45493l-.0983.01c-1.92882.24435-3.92109.16055-5.92653-.29841-9.16772-2.09807-14.90066-11.23376-12.80258-20.40149s11.23378-14.90066 20.40149-12.80258c.28649.0656.56631.14663.84599.22561 1.578.44628 3.06601,1.1043 4.39766,1.93611 3.22266-4.91884 9.25807-7.56274 15.32609-6.17404 4.69756,1.07506 8.33531,4.31509 10.09186,8.43263 4.66592-2.48192 10.20841-3.338 15.76455-2.06645 7.68176,1.75801 13.55575,7.18508 16.18496,14.02665 3.68758-2.3063 8.26174-3.20647 12.83651-2.15951 6.93621,1.58739 11.89735,7.20038 12.99672,13.80994 3.24316-2.16772 7.34025-3.03266 11.44296-2.09374 4.39739,1.00637 7.88995,3.87599 9.80225,7.59697 2.08569-1.00042 4.37893-1.57521 6.75917-1.65893l-7.34096,32.07697c-2.74379-1.44454-4.99969-3.59159-6.57429-6.15296-3.34236,7.06971-11.25277,11.14554-19.18982,9.3291-4.46565-1.02198-8.128-3.71426-10.45514-7.26551-3.93672,5.07405-10.57897,7.70925-17.25144,6.18223-5.40183-1.23624-9.59092-4.94701-11.70789-9.63598-1.06977-.003-2.16518-.11081-3.25175-.35948-.37703-.0863-.75003-.20571-1.11317-.31887-3.96978,4.82059-10.439,7.29247-16.9406,5.80455z" fill="#3e6d05"/>
<path d="m475.08188,146.35973c-8.03332-.94363-15.27564,2.69548-17.69597,8.41223-5.86943-.62582-11.24937,1.5641-13.96126,5.27955l-.0902-.0354c-1.75177-.73631-3.66578-1.24904-5.70902-1.48905-9.34051-1.09718-17.61625,3.98339-18.48107,11.34575s6.00833,14.22237 15.34884,15.31955c.29189.0343.5823.0551.8719.0777 1.63423.12611 3.2491.0702 4.76986-.15894 1.52314,4.55486 6.41967,8.24401 12.60206,8.97023 4.78611.56219 9.24164-.77698 12.18759-3.30541 3.64917,3.17485 8.63498,5.40411 14.29584,6.06906 7.82655.91934 15.08182-1.38701 19.70245-5.67162 2.77673,2.76329 6.8312,4.7458 11.49219,5.2933 7.06693.83012 13.51503-1.87651 16.61373-6.43126 2.3987,2.533 6.0121,4.35197 10.1921,4.84298 4.4803.52627 8.683-.58175 11.6531-2.77297 1.6651,1.33883 3.6594,2.42377 5.8889,3.17186l3.0259-25.76015c-3.0496.27353-5.8555,1.20556-8.1448,2.63944-.9672-6.17475-7.1949-11.46002-15.2816-12.40992-4.5498-.53444-8.8582.39389-12.1686,2.34039-2.1515-4.87519-7.6258-8.73292-14.42402-9.53147-5.50365-.64648-10.62814.88067-14.09346,3.72636-1.01483-.30591-2.08626-.54268-3.19332-.67272-.38413-.0451-.77476-.0646-1.15411-.0859-2.26169-4.6979-7.62285-8.38535-14.247-9.16345z" fill="#325804"/>
<path d="m470.19184,170.22549c-8.08855,0-14.85687-5.65729-16.59375-13.21875-5.90236-.0802-10.99008-3.63581-13.25-8.71875l-.0937.0312c-1.8257.66849-3.78646,1.03125-5.84375,1.03125-9.40473,0-17.03125-7.62651-17.03125-17.03125s7.62652-17.03125 17.03125-17.03125c.2939,0 .58475.0166.875.0312 1.63779.083 3.2351.39248 4.71875.90625 2.04412-5.51381 7.3376-9.4375 13.5625-9.4375 4.81901,0 9.08789,2.34684 11.71875,5.96875 3.99464-3.46028 9.20647-5.53125 14.90625-5.53125 7.88036,0 14.81703,3.97989 18.90625,10.0625 3.08014-3.07083 7.33821-4.96875 12.03125-4.96875 7.11553,0 13.20383,4.36477 15.75003,10.5625 2.6778-2.8366 6.4787-4.59375 10.6875-4.59375 4.511,0 8.5558,2.01816 11.25,5.21875 1.8099-1.4405 3.9171-2.51239 6.2187-3.125v32.90625c-2.9969-.79603-5.6749-2.38571-7.7812-4.53125-1.681,7.63718-8.4828,13.375-16.625,13.375-4.5811,0-8.7518-1.8074-11.8125-4.75-2.7056,5.82441-8.59256,9.875-15.43753,9.875-5.54149,0-10.45283-2.68272-13.5625-6.78125-1.04359.23526-2.13533.375-3.25.375-.38677,0-.77701-.0332-1.15625-.0625-2.79432,5.58471-8.54906,9.4375-15.21875,9.4375z" fill="#417305"/>
<path d="m355.01029,114.46556c-8.08855,0-14.8582,5.64383-16.59508,13.20529-5.90236.0802-10.96399,3.65229-13.22391,8.73523-.0312-.0116-.0619-.0258-.0931-.0373-1.8257-.66849-3.79103-1.04302-5.84832-1.04302-9.40473,0-17.04208,7.63735-17.04208,17.04209s7.63735,17.02345 17.04208,17.02345c.2939,0 .58514-.004.87539-.0186 1.63779-.083 3.2099-.39887 4.69355-.91264 2.04412,5.51381 7.35289,9.44299 13.57779,9.44299 4.81901,0 9.08441-2.35679 11.71527-5.9787 3.99464,3.46028 9.2004,5.55032 14.90018,5.55032 7.88036,0 14.83401-3.99364 18.92323-10.07625 3.08014,3.07083 7.33886,4.97294 12.0319,4.97294 7.11553,0 13.19214-4.36278 15.73831-10.56051 2.67784,2.8366 6.4821,4.60044 10.69088,4.60044 4.51107,0 8.55543-2.0331 11.24964-5.23369 2.90807,2.31448 6.59223,3.70642 10.59775,3.70642 .69624,0 1.37443-.0492 2.04878-.13038 2.69293,3.10327 6.66928,5.06606 11.10063,5.06606 7.17546,0 13.13271-5.15489 14.41593-11.95739 7.05155-.51742 12.60928-6.41277 12.60928-13.59642 0-7.52379-6.09126-13.61504-13.61504-13.61504-5.45711,0-10.15539,3.20758-12.3299,7.84122-3.04463-4.62465-8.27878-7.67359-14.22968-7.67359-4.75918,0-9.07229,1.95582-12.16227,5.10331-1.68096-7.63718-8.49008-13.35429-16.63233-13.35429-4.5811,0-8.72903,1.80684-11.78976,4.74944-2.70555-5.82441-8.59535-9.87137-15.44032-9.87137-5.54149,0-10.46812,2.66242-13.57779,6.76095-1.04359-.23526-2.12611-.3725-3.24078-.3725-.38677,0-.77553.0265-1.15477.0558-2.79432-5.58471-8.56574-9.42436-15.23543-9.42436z" fill="#4e8a06"/>
<path d="m385.42557,168.44327c-1.62191-.46341-14.64449,15.92631-.60224,32.82197-7.81697-2.1796-7.8291-7.22685-15.95931-3.31231 3.78101-7.25954 4.91958-12.29794 4.80965-16.05768-.21839-7.46869-5.36359-9.89152-4.50853-14.65646 .77614-4.32519.69707,4.58378 5.75209,5.56199 4.2766.82758 5.71555-5.26087 10.50834-4.35751z" fill="#a56a0f"/>
<path d="m422.36402,166.72667c-1.64167-.46905-14.82287,16.12031-.60958,33.22178-7.91218-2.20615-7.92445-7.31489-16.1537-3.35266 3.82706-7.34797 4.9795-12.44774 4.86823-16.25328-.22104-7.55965-12.95013-10.99213-8.0685-10.56797 3.98586.34633 4.363,3.42047 9.4796,4.4106 4.3287.83765 5.63278-8.37283 10.48395-7.45847z" fill="#905d0d"/>
<path d="m418.01029,122.46556c-8.08855,0-14.8582,5.64383-16.59508,13.20529-5.90236.0802-10.96399,3.65229-13.22391,8.73523-.0312-.0116-.0619-.0258-.0931-.0373-1.8257-.66849-3.79103-1.04302-5.84832-1.04302-9.40473,0-17.04208,7.63735-17.04208,17.04209s7.63735,17.02345 17.04208,17.02345c.2939,0 .58514-.004.87539-.0186 1.63779-.083 3.2099-.39887 4.69355-.91264 2.04412,5.51381 7.35289,9.44299 13.57779,9.44299 4.81901,0 9.08441-2.35679 11.71527-5.9787 3.99464,3.46028 9.2004,5.55032 14.90018,5.55032 7.88036,0 14.83401-3.99364 18.92323-10.07625 3.08014,3.07083 7.33886,4.97294 12.0319,4.97294 7.11553,0 13.19214-4.36278 15.73831-10.56051 2.67784,2.8366 6.4821,4.60044 10.69088,4.60044 4.51107,0 8.55543-2.0331 11.24964-5.23369 2.90807,2.31448 6.59223,3.70642 10.59775,3.70642 .69624,0 1.37443-.0492 2.04878-.13038 2.69293,3.10327 6.66927,5.06606 11.10067,5.06606 7.1754,0 13.1327-5.15489 14.4159-11.95739 7.0515-.51742 12.6093-6.41277 12.6093-13.59642 0-7.52379-6.0913-13.61504-13.6151-13.61504-5.4571,0-10.1554,3.20758-12.3299,7.84122-3.0446-4.62465-8.2787-7.67359-14.22965-7.67359-4.75918,0-9.07229,1.95582-12.16227,5.10331-1.68096-7.63718-8.49008-13.35429-16.63233-13.35429-4.5811,0-8.72903,1.80684-11.78976,4.74944-2.70555-5.82441-8.59535-9.87137-15.44032-9.87137-5.54149,0-10.46812,2.66242-13.57779,6.76095-1.04359-.23526-2.12611-.3725-3.24078-.3725-.38677,0-.77553.0265-1.15477.0558-2.79432-5.58471-8.56574-9.42436-15.23543-9.42436z" fill="#4e9a06"/>
<path d="m488.86559,172.47116c0,0 9.40556,33.5913 1.00774,36.61451s11.42104-2.6873 20.49069,1.67957c0,0-18.81113-33.5913-13.43652-38.29408s-7.39009,0-8.06191,0z" fill="#a56a0f"/>
<path d="m446.36402,163.75311c-2.38159-.68046-21.50376,23.38598-.88432,48.19534-11.47833-3.20049-11.49613-10.61182-23.43443-4.86375 5.55198-10.65981 7.22384-18.05813 7.06242-23.57888-.32067-10.96691-18.78695-15.94645-11.70509-15.33112 5.78234.50242 6.32947,4.96213 13.75219,6.39852 6.27971,1.2152 8.17157-12.14659 15.20923-10.82011z" fill="#a56a0f"/>
<path d="m473.02027,124.46556c-8.08855,0-14.85687,5.65729-16.59375,13.21875-5.90236.0802-10.99008,3.63581-13.25,8.71875l-.0937-.0312c-1.8257-.66849-3.78646-1.03125-5.84375-1.03125-9.40473,0-17.03125,7.62651-17.03125,17.03125s7.62652,17.03125 17.03125,17.03125c.2939,0 .58475-.0166.875-.0312 1.63779-.083 3.2351-.39248 4.71875-.90625 2.04412,5.51381 7.3376,9.4375 13.5625,9.4375 4.81901,0 9.08789-2.34684 11.71875-5.96875 3.99464,3.46028 9.20647,5.53125 14.90625,5.53125 7.88036,0 14.81703-3.97989 18.90625-10.0625 3.08014,3.07083 7.33821,4.96875 12.03125,4.96875 7.1155,0 13.2038-4.36477 15.75-10.5625 2.6778,2.8366 6.4787,4.59375 10.6875,4.59375 4.5111,0 8.5558-2.01816 11.25-5.21875 1.81,1.4405 3.9172,2.51239 6.2188,3.125l-.0001-32.90635c-2.9969.79603-5.6749,2.38571-7.7812,4.53125-1.681-7.63718-8.4828-13.375-16.625-13.375-4.5811,0-8.7518,1.8074-11.8125,4.75-2.7056-5.82441-8.5926-9.875-15.43755-9.875-5.54149,0-10.45283,2.68272-13.5625,6.78125-1.04359-.23526-2.13533-.375-3.25-.375-.38677,0-.77701.0332-1.15625.0625-2.79432-5.58471-8.54906-9.4375-15.21875-9.4375z" fill="#4e8a06"/>
<path d="m339.86402,158.76524c0,0 14,50 1.5,54.5s17-4 30.5,2.5c0,0-28-50-20-57s-11,0-12,0z" fill="#c17d11"/>
<path d="m479.86402,170.26524c-2.69314-.76947-24.31677,26.44521-1,54.5-12.97987-3.61916-13-12-26.5-5.5 6.27826-12.05427 8.16883-20.4204 7.98629-26.66334-.36262-12.40155-8.90608-16.4246-7.48629-24.33666 1.28876-7.18186 1.15746,7.61125 9.55118,9.23554 7.10119,1.37417 9.49053-8.73554 17.44882-7.23554z" fill="#c17d11"/>
<path d="m548.86402,162.76524c-2.6931-.76947-24.3168,26.44521-1,54.5-12.9799-3.61916-13-12-26.5-5.5 6.2783-12.05427 8.1688-20.4204 7.9863-26.66334-.3626-12.40155-21.24457-18.03248-13.2363-17.33666 6.5388.56814 7.1575,5.61125 15.5512,7.23554 7.1012,1.37417 9.2405-13.73554 17.1988-12.23554z" fill="#c17d11"/>
<path d="m505.55152,129.34056c-7.61522,0-13.78125,6.16603-13.78125,13.78125 0,1.20187.17981,2.35731.46875,3.46875-4.27783,2.34099-7.1875,6.87344-7.1875,12.09375 0,6.58353 4.61055,12.06649 10.78125,13.4375 1.59568,5.31567 6.53971,9.1875 12.375,9.1875 7.12705,0 12.90625-5.77918 12.90625-12.90625 0-1.38086-.2235-2.7235-.625-3.96875 2.5499-2.35748 4.1563-5.72222 4.1563-9.46875 0-4.31645-2.1203-8.12598-5.375-10.46875 .045-.45097.062-.91217.062-1.375 0-7.61522-6.1661-13.78125-13.7813-13.78125z" fill="url(#linearGradient4345)"/>
</g>
</svg>
